<svg width="553" height="410" viewBox="0 0 553 410" fill="none" xmlns="http://www.w3.org/2000/svg">
<g clip-path="url(#clip0_435_12360)">
<path d="M552.306 360.308H0V360.583H552.306V360.308Z" fill="#EBEBEB"/>
<path d="M261.793 311.233H48.5033C46.8324 311.23 45.231 310.567 44.0505 309.389C42.87 308.211 42.207 306.614 42.207 304.95V6.28298C42.2216 4.62809 42.891 3.04574 44.0699 1.87964C45.2488 0.713534 46.8419 0.0578581 48.5033 0.0550232H261.793C263.466 0.0550232 265.07 0.716978 266.253 1.89526C267.436 3.07355 268.1 4.67165 268.1 6.338V304.95C268.1 306.616 267.436 308.214 266.253 309.393C265.07 310.571 263.466 311.233 261.793 311.233ZM48.5033 0.275093C46.9057 0.278008 45.3744 0.912265 44.2458 2.03865C43.1171 3.16503 42.4832 4.6915 42.4832 6.28298V304.95C42.4832 306.541 43.1171 308.068 44.2458 309.194C45.3744 310.321 46.9057 310.955 48.5033 310.958H261.793C263.391 310.955 264.924 310.321 266.054 309.195C267.185 308.069 267.821 306.542 267.824 304.95V6.28298C267.821 4.69048 267.185 3.16404 266.054 2.03798C264.924 0.911907 263.391 0.278002 261.793 0.275093H48.5033Z" fill="#EBEBEB"/>
<path d="M500.731 311.233H287.43C285.758 311.23 284.156 310.567 282.974 309.389C281.791 308.212 281.126 306.615 281.123 304.95V6.28298C281.14 4.62709 281.812 3.04475 282.993 1.87895C284.174 0.71315 285.768 0.0578272 287.43 0.0550232H500.731C502.39 0.0607499 503.981 0.717706 505.157 1.8835C506.334 3.04929 507.002 4.62999 507.016 6.28298V304.95C507.016 306.612 506.355 308.207 505.177 309.385C503.999 310.563 502.4 311.227 500.731 311.233ZM287.43 0.275093C285.832 0.278002 284.299 0.911907 283.169 2.03798C282.038 3.16404 281.402 4.69048 281.399 6.28298V304.95C281.402 306.542 282.038 308.069 283.169 309.195C284.299 310.321 285.832 310.955 287.43 310.958H500.731C502.33 310.955 503.862 310.321 504.992 309.195C506.123 308.069 506.759 306.542 506.762 304.95V6.28298C506.759 4.69048 506.123 3.16404 504.992 2.03798C503.862 0.911907 502.33 0.278002 500.731 0.275093H287.43Z" fill="#EBEBEB"/>
<path d="M85.3644 370.784H56.6445V371.059H85.3644V370.784Z" fill="#EBEBEB"/>
<path d="M210.075 367.802H160.334V368.077H210.075V367.802Z" fill="#EBEBEB"/>
<path d="M153.618 381.006H86.4688V381.281H153.618V381.006Z" fill="#EBEBEB"/>
<path d="M495.662 379.157H474.42V379.432H495.662V379.157Z" fill="#EBEBEB"/>
<path d="M464.578 379.157H403.504V379.432H464.578V379.157Z" fill="#EBEBEB"/>
<path d="M366.202 374.503H283.941V374.778H366.202V374.503Z" fill="#EBEBEB"/>
<path d="M210.794 176.595L196.82 360.352H331.583L345.556 176.595H210.794ZM295.528 306.435C294.876 313.77 291.519 320.604 286.105 325.618C280.69 330.631 273.603 333.468 266.212 333.581C262.713 333.635 259.241 332.954 256.024 331.581C252.806 330.209 249.916 328.176 247.54 325.616C245.165 323.055 243.358 320.025 242.237 316.722C241.117 313.419 240.708 309.917 241.038 306.446L245.953 241.856C246.605 234.523 249.961 227.691 255.373 222.677C260.785 217.664 267.869 214.826 275.259 214.711C278.761 214.655 282.235 215.335 285.455 216.708C288.675 218.08 291.568 220.114 293.946 222.675C296.324 225.237 298.132 228.269 299.254 231.574C300.375 234.879 300.785 238.383 300.455 241.856L295.528 306.435Z" fill="#E6E6E6"/>
<path d="M374.33 360.308H177.842L178.98 348.249H375.457L374.33 360.308Z" fill="#E6E6E6"/>
<path d="M449.82 292.098H467.251C467.484 292.098 467.715 292.051 467.93 291.959C468.144 291.867 468.338 291.733 468.498 291.564C468.658 291.395 468.782 291.195 468.862 290.976C468.942 290.758 468.977 290.526 468.963 290.293L468.897 289.061C468.869 288.579 468.658 288.126 468.307 287.793C467.957 287.46 467.492 287.272 467.008 287.267H449.577C449.344 287.266 449.112 287.311 448.897 287.402C448.682 287.492 448.488 287.626 448.327 287.794C448.165 287.962 448.04 288.161 447.959 288.379C447.878 288.597 447.842 288.829 447.854 289.061L447.92 290.293C447.948 290.778 448.16 291.234 448.513 291.569C448.865 291.904 449.333 292.093 449.82 292.098Z" fill="#E0E0E0"/>
<path d="M420.736 292.098H438.134C438.368 292.1 438.599 292.054 438.815 291.963C439.03 291.871 439.224 291.737 439.385 291.567C439.545 291.398 439.669 291.197 439.749 290.978C439.828 290.759 439.861 290.526 439.846 290.293L439.78 289.061C439.752 288.579 439.541 288.126 439.19 287.793C438.84 287.46 438.375 287.272 437.891 287.267H420.493C420.26 287.266 420.028 287.311 419.813 287.402C419.598 287.492 419.404 287.626 419.243 287.794C419.081 287.962 418.956 288.161 418.875 288.379C418.794 288.597 418.758 288.829 418.77 289.061L418.836 290.293C418.867 290.777 419.079 291.232 419.431 291.566C419.784 291.901 420.25 292.091 420.736 292.098Z" fill="#E0E0E0"/>
<path d="M480.761 290.734H74.6721C72.3898 290.71 70.2016 289.824 68.5491 288.256C66.8967 286.687 65.9031 284.553 65.769 282.283L53.5409 39.3044C53.4725 38.2137 53.6307 37.1206 54.0056 36.0936C54.3805 35.0666 54.9641 34.1276 55.7199 33.3355C56.4757 32.5434 57.3874 31.9151 58.3981 31.49C59.4087 31.0648 60.4966 30.852 61.5935 30.8647H467.682C469.963 30.8859 472.151 31.769 473.804 33.3357C475.457 34.9024 476.451 37.0357 476.585 39.3044L488.813 282.283C488.882 283.374 488.723 284.468 488.349 285.495C487.974 286.523 487.39 287.462 486.635 288.255C485.879 289.048 484.967 289.678 483.957 290.104C482.946 290.53 481.858 290.745 480.761 290.734Z" fill="#E0E0E0"/>
<path d="M485.731 290.734H79.654C77.3636 290.718 75.1645 289.837 73.5015 288.268C71.8384 286.7 70.8355 284.56 70.6956 282.283L58.5448 39.3044C58.4765 38.2155 58.6341 37.1244 59.0077 36.0989C59.3813 35.0733 59.9629 34.1355 60.7163 33.3437C61.4697 32.5519 62.3787 31.9231 63.3868 31.4966C64.3948 31.0702 65.4802 30.855 66.5753 30.8647H472.653C474.942 30.8772 477.141 31.7559 478.804 33.3229C480.468 34.89 481.471 37.0281 481.611 39.3044L493.762 282.283C493.83 283.372 493.673 284.464 493.299 285.49C492.926 286.516 492.344 287.455 491.591 288.247C490.838 289.04 489.929 289.67 488.921 290.097C487.913 290.525 486.827 290.742 485.731 290.734Z" fill="#E6E6E6"/>
<path d="M82.0278 273.777L70.6944 47.821C70.6535 47.1377 70.7541 46.4532 70.9898 45.8102C71.2256 45.1671 71.5915 44.5792 72.0648 44.0829C72.5382 43.5866 73.1089 43.1925 73.7416 42.9251C74.3742 42.6577 75.0553 42.5226 75.7425 42.5284H464.698C466.129 42.54 467.502 43.0935 468.538 44.0764C469.574 45.0594 470.195 46.3982 470.277 47.821L481.61 273.777C481.652 274.46 481.553 275.144 481.319 275.787C481.084 276.43 480.72 277.018 480.247 277.515C479.775 278.011 479.205 278.406 478.572 278.673C477.94 278.941 477.26 279.076 476.573 279.07H87.606C86.1762 279.056 84.805 278.501 83.7696 277.519C82.7342 276.536 82.1116 275.199 82.0278 273.777Z" fill="#F5F5F5"/>
<path d="M94.6206 54.082C94.6599 54.6836 94.5747 55.2869 94.3704 55.8544C94.166 56.4218 93.8468 56.9414 93.4325 57.3809C93.0182 57.8204 92.5177 58.1705 91.962 58.4093C91.4064 58.6482 90.8073 58.7708 90.2021 58.7695C88.9366 58.755 87.7235 58.2634 86.8073 57.3936C85.8911 56.5238 85.3398 55.3405 85.2645 54.082C85.2267 53.4813 85.3131 52.8793 85.5181 52.3131C85.7232 51.7469 86.0427 51.2287 86.4568 50.7904C86.8709 50.3521 87.3709 50.0031 87.9258 49.7649C88.4807 49.5267 89.0787 49.4044 89.6829 49.4056C90.9483 49.4146 92.1627 49.903 93.0797 50.7715C93.9968 51.6401 94.5476 52.8237 94.6206 54.082Z" fill="white"/>
<path d="M115.908 54.082C115.947 54.6836 115.862 55.2869 115.657 55.8544C115.453 56.4218 115.134 56.9414 114.72 57.3809C114.305 57.8204 113.805 58.1705 113.249 58.4093C112.693 58.6482 112.094 58.7708 111.489 58.7695C110.224 58.755 109.011 58.2634 108.094 57.3936C107.178 56.5238 106.627 55.3405 106.552 54.082C106.514 53.4813 106.6 52.8793 106.805 52.3131C107.01 51.7469 107.33 51.2287 107.744 50.7904C108.158 50.3521 108.658 50.0031 109.213 49.7649C109.768 49.5267 110.366 49.4044 110.97 49.4056C112.235 49.4146 113.45 49.903 114.367 50.7715C115.284 51.6401 115.835 52.8237 115.908 54.082Z" fill="white"/>
<path d="M137.203 54.082C137.243 54.6836 137.157 55.2869 136.953 55.8544C136.749 56.4218 136.43 56.9414 136.015 57.3809C135.601 57.8204 135.1 58.1705 134.545 58.4093C133.989 58.6482 133.39 58.7708 132.785 58.7695C131.52 58.7575 130.306 58.2663 129.391 57.3958C128.476 56.5252 127.928 55.3405 127.858 54.082C127.82 53.4813 127.907 52.8793 128.112 52.3131C128.317 51.7469 128.636 51.2287 129.051 50.7904C129.465 50.3521 129.965 50.0031 130.52 49.7649C131.074 49.5267 131.672 49.4044 132.277 49.4056C133.539 49.42 134.75 49.9105 135.664 50.7782C136.578 51.6459 137.128 52.8264 137.203 54.082Z" fill="white"/>
<g opacity="0.6">
<path d="M122.479 279.07H178.538L229.792 42.5174H173.733L122.479 279.07Z" fill="white"/>
<path d="M363.727 279.07H377.921L429.175 42.5174H414.981L363.727 279.07Z" fill="white"/>
<path d="M190.998 279.07H270.53L321.784 42.5174H242.252L190.998 279.07Z" fill="white"/>
</g>
<path d="M276.154 410C394.438 410 490.327 404.423 490.327 397.544C490.327 390.665 394.438 385.088 276.154 385.088C157.869 385.088 61.9805 390.665 61.9805 397.544C61.9805 404.423 157.869 410 276.154 410Z" fill="#F5F5F5"/>
<path d="M398.324 228.982H397.926C368.499 226.583 348.219 201.473 347.401 200.461C346.648 199.435 346.323 198.158 346.494 196.898C346.665 195.638 347.319 194.493 348.319 193.704C349.319 192.914 350.588 192.54 351.858 192.662C353.128 192.783 354.302 193.389 355.134 194.354C355.366 194.651 372.697 215.932 396.689 218.969C404.477 211.266 411.049 190.932 410.32 184.781C410.32 184.715 410.32 184.66 410.32 184.605C410.165 182.624 409.79 175.802 411.745 171.786C412.389 170.754 413.394 169.995 414.567 169.657C415.739 169.32 416.995 169.426 418.093 169.957C419.191 170.487 420.053 171.404 420.513 172.53C420.972 173.656 420.997 174.912 420.582 176.055C420.096 177.068 419.864 180.71 420.096 183.758C421.2 193.881 412.364 219.431 401.317 227.981C400.456 228.632 399.405 228.984 398.324 228.982Z" fill="black"/>
<path d="M164.388 202.321C154.224 202.198 144.198 199.953 134.958 195.73C125.719 191.507 117.471 185.401 110.748 177.805C109.989 176.962 109.546 175.884 109.494 174.753C109.441 173.622 109.783 172.508 110.461 171.599C118.437 160.915 132.553 135.684 134.763 127.464C133.714 125.482 132.13 123.832 130.19 122.7C129.413 122.339 128.745 121.783 128.251 121.086C127.757 120.39 127.454 119.577 127.373 118.727L126.577 110.673C126.5 109.403 126.92 108.153 127.748 107.185C128.577 106.217 129.749 105.607 131.02 105.481C132.29 105.356 133.56 105.726 134.563 106.513C135.566 107.301 136.223 108.445 136.398 109.705L136.95 115.305C140.215 117.803 142.801 121.075 144.472 124.823C144.804 125.608 144.925 126.465 144.826 127.31C143.809 136.036 129.593 161.311 120.845 174.086C141.269 194.365 165.681 192.517 166.752 192.418C168.039 192.329 169.31 192.745 170.293 193.578C171.275 194.411 171.892 195.593 172.01 196.873C172.129 198.153 171.739 199.428 170.926 200.425C170.113 201.423 168.94 202.064 167.658 202.211C167.371 202.233 166.233 202.321 164.388 202.321Z" fill="black"/>
<path d="M323.508 397.379H310.253C309.492 397.379 308.742 397.204 308.06 396.868C307.378 396.532 306.784 396.043 306.323 395.44C305.862 394.837 305.547 394.137 305.403 393.393C305.259 392.649 305.289 391.882 305.492 391.151C308.949 378.783 310.651 368.715 311.921 352.958C307.237 330.951 302.83 310.914 302.786 310.716C302.546 309.458 302.809 308.156 303.518 307.087C304.226 306.019 305.326 305.268 306.582 304.995C307.837 304.721 309.151 304.946 310.243 305.622C311.335 306.298 312.119 307.371 312.429 308.614C312.429 308.812 316.98 329.367 321.719 351.616C321.82 352.078 321.85 352.553 321.807 353.024C320.702 367.175 319.255 376.957 316.649 387.553H323.475C324.743 387.613 325.939 388.156 326.815 389.071C327.691 389.986 328.179 391.202 328.179 392.466C328.179 393.73 327.691 394.946 326.815 395.861C325.939 396.776 324.743 397.319 323.475 397.379H323.508Z" fill="black"/>
<path d="M221.276 397.379H213.809C213.103 397.381 212.405 397.232 211.763 396.942C211.12 396.652 210.547 396.227 210.084 395.697C209.621 395.166 209.278 394.543 209.078 393.869C208.878 393.194 208.827 392.485 208.926 391.789C210.197 382.766 216.659 366.338 223.618 349.822C226.081 328.035 228.091 309.329 228.114 309.109C228.168 308.453 228.354 307.815 228.661 307.232C228.968 306.649 229.389 306.134 229.899 305.716C230.409 305.298 230.999 304.986 231.632 304.8C232.266 304.613 232.93 304.554 233.587 304.628C234.243 304.702 234.878 304.906 235.454 305.228C236.03 305.551 236.535 305.985 236.939 306.506C237.344 307.026 237.639 307.622 237.808 308.258C237.977 308.895 238.016 309.558 237.923 310.21C237.923 310.397 235.846 329.532 233.338 351.638C233.287 352.1 233.168 352.552 232.985 352.98C228.091 364.677 222.502 378.453 219.95 387.575H221.276C221.943 387.543 222.61 387.647 223.236 387.88C223.862 388.113 224.434 388.469 224.917 388.929C225.401 389.388 225.786 389.94 226.049 390.552C226.312 391.164 226.447 391.822 226.447 392.488C226.447 393.153 226.312 393.812 226.049 394.424C225.786 395.036 225.401 395.588 224.917 396.047C224.434 396.507 223.862 396.863 223.236 397.096C222.61 397.329 221.943 397.432 221.276 397.401V397.379Z" fill="black"/>
<path d="M225.573 61.6744L168.067 118.969C165.173 182.47 165.405 249.173 168.067 318.33H358.237C354.47 229.092 354.117 143.188 358.237 61.6744H225.573Z" fill="white"/>
<path d="M358.237 319.287H168.067C167.812 319.291 167.565 319.195 167.38 319.02C167.194 318.846 167.084 318.606 167.073 318.352C164.322 246.533 164.322 179.411 167.073 118.892C167.088 118.647 167.194 118.415 167.371 118.243L224.877 60.9482C224.968 60.8573 225.077 60.7852 225.196 60.7361C225.316 60.6871 225.444 60.6619 225.573 60.6621H358.237C358.371 60.6624 358.504 60.6899 358.627 60.7429C358.751 60.7958 358.862 60.8732 358.955 60.9702C359.045 61.0677 359.115 61.1821 359.16 61.3068C359.206 61.4315 359.226 61.5639 359.22 61.6964C355.254 140.195 355.254 224.119 359.22 318.264C359.224 318.396 359.202 318.527 359.155 318.65C359.107 318.773 359.036 318.885 358.944 318.979C358.854 319.078 358.745 319.156 358.623 319.209C358.502 319.262 358.37 319.289 358.237 319.287ZM169.006 317.329H357.209C353.299 223.953 353.288 140.624 357.209 62.6317H225.982L169.006 119.366C166.299 179.488 166.299 246.081 169.006 317.329Z" fill="black"/>
<path d="M324.137 291.053H303.392C303.295 291.053 303.199 291.034 303.109 290.996C303.019 290.959 302.938 290.905 302.869 290.837C302.8 290.768 302.746 290.687 302.709 290.597C302.672 290.508 302.652 290.412 302.652 290.315C302.652 290.219 302.672 290.123 302.709 290.033C302.746 289.944 302.8 289.863 302.869 289.794C302.938 289.726 303.019 289.671 303.109 289.634C303.199 289.597 303.295 289.578 303.392 289.578H324.137C324.333 289.578 324.522 289.656 324.66 289.794C324.799 289.932 324.877 290.12 324.877 290.315C324.877 290.511 324.799 290.698 324.66 290.837C324.522 290.975 324.333 291.053 324.137 291.053Z" fill="#3965D6"/>
<path d="M294.799 291.053H202.144C201.948 291.053 201.76 290.975 201.621 290.837C201.482 290.698 201.404 290.511 201.404 290.315C201.404 290.12 201.482 289.932 201.621 289.794C201.76 289.656 201.948 289.578 202.144 289.578H294.777C294.973 289.578 295.162 289.656 295.3 289.794C295.439 289.932 295.517 290.12 295.517 290.315C295.517 290.511 295.439 290.698 295.3 290.837C295.162 290.975 294.973 291.053 294.777 291.053H294.799Z" fill="#3965D6"/>
<path d="M236.696 180.721C236.475 175.923 233.747 172.138 230.588 172.248C227.429 172.358 225.065 176.33 225.264 181.128C225.462 185.925 228.213 189.711 231.372 189.59C234.531 189.469 236.917 185.507 236.696 180.721Z" fill="#3965D6"/>
<path d="M303.382 179.213C303.161 174.427 300.433 170.642 297.273 170.752C294.114 170.862 291.75 174.834 291.949 179.632C292.148 184.429 294.91 188.214 298.058 188.093C301.206 187.972 303.603 184.011 303.382 179.213Z" fill="#3965D6"/>
<path d="M253.343 200.318C258.439 198.422 263.867 197.571 269.302 197.817C274.737 198.063 280.065 199.4 284.968 201.748C285.131 201.838 285.274 201.959 285.389 202.104C285.505 202.249 285.59 202.415 285.64 202.593C285.691 202.771 285.705 202.957 285.682 203.141C285.66 203.325 285.601 203.502 285.509 203.663C285.322 203.987 285.014 204.224 284.653 204.325C284.292 204.426 283.905 204.382 283.576 204.202C283.41 204.114 267.67 195.664 248.88 205.303C248.545 205.471 248.157 205.504 247.799 205.393C247.44 205.282 247.139 205.037 246.958 204.708C246.872 204.545 246.82 204.365 246.804 204.181C246.788 203.997 246.809 203.812 246.865 203.636C246.922 203.46 247.013 203.297 247.133 203.156C247.253 203.015 247.4 202.9 247.566 202.816C249.432 201.853 251.362 201.018 253.343 200.318Z" fill="#3965D6"/>
<path d="M227.151 135.772C227.641 135.785 228.12 135.921 228.543 136.168C229.189 136.549 229.658 137.168 229.848 137.891C230.038 138.614 229.935 139.383 229.56 140.03C227.361 143.933 224.25 147.25 220.491 149.7C216.732 152.15 212.435 153.66 207.964 154.103C207.213 154.133 206.48 153.867 205.923 153.363C205.367 152.858 205.033 152.156 204.993 151.408C204.977 151.039 205.033 150.671 205.16 150.324C205.287 149.978 205.481 149.659 205.731 149.387C205.982 149.116 206.283 148.895 206.619 148.74C206.955 148.584 207.318 148.496 207.688 148.481C208.119 148.481 218.315 147.842 224.655 137.18C224.904 136.742 225.267 136.379 225.707 136.131C226.147 135.883 226.646 135.759 227.151 135.772Z" fill="#3965D6"/>
<path d="M293.881 134.154C294.342 134.064 294.819 134.089 295.268 134.227C295.717 134.365 296.125 134.612 296.455 134.946C305.292 143.749 315.388 141.978 315.808 141.901C316.538 141.77 317.292 141.926 317.91 142.336C318.527 142.746 318.962 143.379 319.121 144.101C319.195 144.463 319.197 144.835 319.126 145.197C319.054 145.559 318.912 145.903 318.707 146.21C318.501 146.517 318.237 146.78 317.929 146.985C317.621 147.19 317.275 147.331 316.912 147.402C316.36 147.501 303.502 149.944 292.379 138.875C292.016 138.517 291.757 138.066 291.632 137.573C291.507 137.079 291.52 136.561 291.669 136.074C291.818 135.587 292.097 135.15 292.477 134.809C292.858 134.469 293.324 134.239 293.826 134.143L293.881 134.154Z" fill="#3965D6"/>
<path opacity="0.2" d="M355.376 164.953L347.301 165.701C345.904 165.831 344.507 165.449 343.372 164.627C342.238 163.804 341.443 162.598 341.137 161.234L329.948 111.3C329.624 109.85 329.878 108.332 330.654 107.064C331.431 105.796 332.67 104.877 334.112 104.5L355.751 98.8441L355.376 164.953Z" fill="#676767"/>
<path opacity="0.2" d="M230.864 124.053C225.242 108.769 219.619 84.3085 225.551 61.6524L168.045 118.947C184.316 124.394 210.23 126.716 230.864 124.053Z" fill="#676767"/>
<path d="M225.573 118.947C219.265 100.396 221.839 75.1757 225.573 61.6524L168.066 118.947C185.475 122.105 204.927 121.599 225.573 118.947Z" fill="white"/>
<path d="M194.411 122.105C185.526 122.171 176.652 121.435 167.9 119.905C167.723 119.876 167.557 119.798 167.421 119.68C167.285 119.563 167.184 119.41 167.13 119.239C167.077 119.068 167.072 118.885 167.116 118.711C167.16 118.537 167.252 118.379 167.381 118.254L224.887 60.9592C225.041 60.8038 225.241 60.7038 225.458 60.675C225.675 60.6462 225.895 60.6902 226.084 60.8C226.273 60.9098 226.42 61.0793 226.501 61.2815C226.582 61.4837 226.594 61.7071 226.533 61.9165C223.065 74.5044 220.182 99.9885 226.533 118.628C226.577 118.767 226.591 118.913 226.574 119.057C226.557 119.201 226.509 119.34 226.434 119.465C226.358 119.588 226.255 119.693 226.132 119.771C226.01 119.849 225.871 119.899 225.727 119.916C215.346 121.312 204.886 122.043 194.411 122.105ZM170.11 118.298C185.397 120.818 203.149 120.763 224.236 118.122C219.033 101.683 220.215 79.9292 223.705 64.8654L170.11 118.298Z" fill="black"/>
<path d="M423.177 202.64C422.814 202.64 422.461 202.52 422.173 202.299C421.885 202.078 421.679 201.768 421.586 201.418L401.328 124.526C401.216 124.104 401.278 123.656 401.498 123.279C401.719 122.903 402.081 122.629 402.504 122.518C402.927 122.407 403.378 122.468 403.756 122.688C404.134 122.908 404.409 123.268 404.52 123.69L424.779 200.582C424.833 200.791 424.846 201.008 424.817 201.222C424.787 201.436 424.715 201.642 424.605 201.828C424.495 202.014 424.35 202.177 424.177 202.307C424.004 202.436 423.807 202.531 423.597 202.585C423.461 202.625 423.319 202.644 423.177 202.64Z" fill="black"/>
<path d="M460.909 92.1854L459.838 92.4604L461.359 98.3415L462.431 98.0664L460.909 92.1854Z" fill="#3965D6"/>
<path d="M457.43 83.7804L453.177 67.6383C452.599 65.4529 451.174 63.5852 449.215 62.4446C447.256 61.304 444.923 60.9835 442.728 61.5534L431.604 64.4583L431.328 63.3579L442.452 60.442C444.928 59.8016 447.559 60.1645 449.768 61.4512C451.977 62.738 453.584 64.8439 454.238 67.3082L458.502 83.4613L457.43 83.7804Z" fill="#3965D6"/>
<path d="M443.438 64.2442L338.12 91.767C335.028 92.5751 333.179 95.7271 333.99 98.8072L347.319 149.416C348.13 152.496 351.294 154.338 354.386 153.53L459.704 126.007C462.796 125.199 464.645 122.047 463.834 118.967L450.505 68.3581C449.694 65.278 446.53 63.4361 443.438 64.2442Z" fill="#3965D6"/>
<path d="M438.192 123.198L371.745 140.563C368.653 141.371 366.804 144.523 367.615 147.603L371.781 163.419C372.592 166.499 375.756 168.341 378.848 167.533L445.295 150.169C448.387 149.36 450.236 146.208 449.425 143.128L445.26 127.312C444.449 124.232 441.284 122.39 438.192 123.198Z" fill="#3965D6"/>
<path d="M213.498 249.028V240.316L215.442 238.372H221.886V240.694H216.126V248.65H222.066V250.972H215.442L213.498 249.028ZM229.382 250.972H226.826V243.124H223.424V240.892H232.784V243.124H229.382V250.972ZM234.573 253.492V240.892H241.935L243.987 242.944V248.92L241.935 250.972H237.129V253.492H234.573ZM241.431 243.052H237.129V248.812H241.431V243.052ZM246.055 248.992V245.212L252.607 245.032V243.052H246.415V240.892H253.183L255.163 242.872V250.972H248.035L246.055 248.992ZM248.611 246.796V248.884H252.607V246.436L248.611 246.796ZM257.528 250.972V240.892H260.084V244.816H264.332V240.892H266.888V250.972H264.332V247.03H260.084V250.972H257.528ZM279.16 250.972H276.64V243.952L271.978 250.972H269.26V240.892H271.78V247.984L276.442 240.892H279.16V250.972ZM290.826 240.892V248.74H292.122V253.492H289.998V250.972H281.538V240.892H284.094V248.74H288.27V240.892H290.826ZM293.565 248.992V245.212L300.117 245.032V243.052H293.925V240.892H300.693L302.673 242.872V250.972H295.545L293.565 248.992ZM296.121 246.796V248.884H300.117V246.436L296.121 246.796ZM190.324 272.972V262.892H192.88V266.816H197.128V262.892H199.684V272.972H197.128V269.03H192.88V272.972H190.324ZM201.93 271.064V264.8L203.838 262.892H210.93V268.544H204.486V270.812H210.57V272.972H203.838L201.93 271.064ZM204.486 267.14L208.698 266.96V264.908H204.486V267.14ZM218.223 271.064V264.8L220.131 262.892H226.575V265.196H220.779V270.668H226.575V272.972H220.131L218.223 271.064ZM228.284 275.492V273.332H232.838L233.36 271.532H230.246L227.708 262.892H230.3L232.136 269.444H233.846L235.61 262.892H238.184L234.638 275.492H228.284ZM248.307 262.892V270.74H251.727V262.892H254.283V270.74H255.525V275.492H253.401V272.972H239.775V262.892H242.331V270.74H245.751V262.892H248.307ZM257.006 271.064V264.8L258.914 262.892H266.006V268.544H259.562V270.812H265.646V272.972H258.914L257.006 271.064ZM259.562 267.14L263.774 266.96V264.908H259.562V267.14ZM268.124 271.064V264.8L270.032 262.892H276.476V265.196H270.68V270.668H276.476V272.972H270.032L268.124 271.064ZM283.764 272.972H281.208V265.124H277.806V262.892H287.166V265.124H283.764V272.972ZM288.955 262.892H296.443L297.955 264.404V266.888L296.929 267.68L298.315 268.814V271.46L296.803 272.972H288.955V262.892ZM291.475 266.96H295.471V264.836H291.475V266.96ZM291.475 271.028H295.759V268.76H291.475V271.028ZM300.243 275.492V273.332H304.797L305.319 271.532H302.205L299.667 262.892H302.259L304.095 269.444H305.805L307.569 262.892H310.143L306.597 275.492H300.243ZM311.608 271.064V264.8L313.516 262.892H320.608V268.544H314.164V270.812H320.248V272.972H313.516L311.608 271.064ZM314.164 267.14L318.376 266.96V264.908H314.164V267.14ZM328.233 272.972H325.677V265.124H322.275V262.892H331.635V265.124H328.233V272.972Z" fill="#2F3E4C"/>
<path d="M380.353 155.89L378.694 149.725L379.901 147.635L384.581 146.386L386.675 147.595L388.333 153.76L387.127 155.85L382.447 157.099L380.353 155.89ZM381.135 149.422L382.619 154.937L385.892 154.064L384.409 148.548L381.135 149.422ZM394.948 143.619L396.963 151.109L399.397 150.459L397.383 142.969L399.655 142.363L402.201 151.826L390.514 154.946L387.968 145.482L390.241 144.876L392.255 152.365L394.69 151.716L392.675 144.226L394.948 143.619ZM411.881 149.243L409.649 149.838L407.969 143.592L406.132 150.777L403.982 151.351L401.436 141.887L403.668 141.292L405.348 147.538L407.185 140.353L409.336 139.779L411.881 149.243ZM413.659 148.768L411.113 139.304L418.12 137.434L418.607 139.246L413.873 140.51L414.36 142.321L418.229 141.289L420.22 142.438L420.947 145.142L419.8 147.129L413.659 148.768ZM415.444 146.35L418.528 145.527L417.91 143.228L414.826 144.052L415.444 146.35ZM422.886 146.305L420.341 136.841L422.613 136.235L423.602 139.912L424.955 139.551L425.792 135.386L428.308 134.715L427.154 139.805L431.056 144.124L428.513 144.803L425.594 141.496L424.133 141.886L425.159 145.699L422.886 146.305ZM431.719 143.947L431.257 133.928L435.666 132.751L440.295 141.658L437.887 142.301L436.95 140.378L433.974 141.172L434.127 143.305L431.719 143.947ZM433.818 139.461L436.226 138.818L434.365 135.026L433.526 135.249L433.818 139.461Z" fill="white"/>
<path d="M364.037 124.426L359.523 104.102L366.981 102.111L369.705 115.626L376.198 113.893L372.624 100.605L380.121 98.6041L387.395 125.643L379.897 127.644L378.027 120.691L364.037 124.426ZM390.664 119.14L386.217 102.608L390.059 95.9515L401.576 92.8775L408.245 96.7279L412.692 113.26L408.849 119.916L397.333 122.99L390.664 119.14ZM394.13 102.152L397.745 115.594L404.779 113.716L401.163 100.274L394.13 102.152ZM416.791 110.345L412.277 90.0212L419.736 88.0304L422.46 101.545L428.953 99.812L425.379 86.5243L432.876 84.5231L440.149 111.562L432.652 113.563L430.782 106.61L416.791 110.345Z" fill="white"/>
</g>
<defs>
<clipPath id="clip0_435_12360">
<rect width="552.306" height="410" fill="white"/>
</clipPath>
</defs>
</svg>
