<svg width="52" height="52" viewBox="0 0 52 52" fill="none" xmlns="http://www.w3.org/2000/svg">
<circle cx="26" cy="26" r="25" stroke="black" stroke-width="2"/>
<path d="M37.1996 19.3499L14.8003 19.3496L14.7988 19.35M37.1996 19.3499L37.1988 34.8853C37.1988 36.357 35.9832 37.55 34.4837 37.55H17.514C16.0144 37.55 14.7988 36.357 14.7988 34.8853V19.35M37.1996 19.3499L32.7089 14.8601C32.4463 14.5975 32.0902 14.45 31.7189 14.45H20.2787C19.9074 14.45 19.5513 14.5975 19.2888 14.8601L14.7988 19.35M30.1988 23.55C30.1988 25.8696 28.3184 27.75 25.9988 27.75C23.6792 27.75 21.7988 25.8696 21.7988 23.55" stroke="black" stroke-width="2" stroke-linecap="round" stroke-linejoin="round"/>
</svg>
