<svg width="81" height="80" viewBox="0 0 81 80" fill="none" xmlns="http://www.w3.org/2000/svg">
<g id="Group 356">
<g id="Group 557">
<path id="Vector" d="M40.6784 50.6959C44.7588 50.6959 48.6723 49.0749 51.5573 46.1894C54.4427 43.3044 56.0638 39.3909 56.0638 35.3105C56.0638 31.23 54.4429 27.3166 51.5573 24.4316C48.6723 21.5461 44.7588 19.925 40.6784 19.925C36.5979 19.925 32.6845 21.546 29.7995 24.4316C26.914 27.3166 25.293 31.23 25.293 35.3105C25.293 39.3909 26.9139 43.3044 29.7995 46.1894C32.6845 49.0748 36.5979 50.6959 40.6784 50.6959ZM40.6784 22.0252C44.2054 22.0252 47.5879 23.4264 50.0819 25.9199C52.5755 28.414 53.9766 31.7963 53.9766 35.3235C53.9766 38.85 52.5755 42.233 50.0819 44.7266C47.5879 47.2206 44.2055 48.6217 40.6784 48.6217C37.1512 48.6217 33.7689 47.2206 31.2748 44.7266C28.7813 42.233 27.3801 38.8502 27.3801 35.3235C27.3839 31.7978 28.7861 28.4173 31.2791 25.9241C33.7722 23.4309 37.1528 22.0285 40.6785 22.0251L40.6784 22.0252Z" fill="#3965D6"/>
<path id="Vector_2" d="M60.9994 35.3239C60.998 30.6158 59.363 26.0539 56.3726 22.4172C53.3821 18.7805 49.2223 16.2948 44.6029 15.384C39.984 14.4732 35.192 15.1941 31.0452 17.4235C30.5408 17.6951 30.3523 18.3241 30.6239 18.828C30.8955 19.3324 31.5245 19.521 32.0289 19.2494C37.4457 16.3299 43.9689 16.3336 49.3827 19.2596C54.7963 22.1852 58.3733 27.6403 58.8982 33.7718C59.4236 39.9034 56.8265 45.8877 51.9892 49.691C47.1519 53.4953 40.7248 54.6081 34.8897 52.6521C29.0553 50.6961 24.5974 45.9339 23.0305 39.9831C21.4632 34.032 22.9974 27.6916 27.1124 23.1166C27.4964 22.6915 27.4633 22.0355 27.0387 21.6514C26.6136 21.2674 25.958 21.3001 25.5735 21.7251C22.7556 24.8556 20.9798 28.7845 20.4922 32.968C20.0046 37.152 20.8286 41.3842 22.8513 45.0791C24.8736 48.7742 27.9943 51.7493 31.7812 53.5928V63.8142C31.784 64.1408 31.9408 64.4474 32.204 64.6406C32.4671 64.8342 32.8064 64.8925 33.119 64.7974L40.678 62.2357L48.2034 64.7978V64.7974C48.516 64.8926 48.8553 64.8342 49.1184 64.6406C49.3816 64.4474 49.5384 64.1408 49.5412 63.8142V53.5997C52.9722 51.9335 55.865 49.3364 57.8915 46.1051C59.9175 42.8738 60.9945 39.1387 61 35.3247L60.9994 35.3239ZM47.5002 62.3688L41.0116 60.1613C40.7947 60.0876 40.5595 60.0876 40.3425 60.1613L33.8539 62.3688V54.4687C38.2662 56.0443 43.0881 56.0443 47.5 54.4687L47.5002 62.3688Z" fill="#3965D6"/>
<path id="Vector_3" d="M30.7767 32.9299L34.7102 37.1308L33.9874 42.8429C33.9389 43.219 34.0994 43.5918 34.406 43.8149C34.7125 44.0379 35.1161 44.0757 35.4591 43.9133L40.6767 41.465L45.8878 43.9404C46.2303 44.1024 46.6343 44.0646 46.9409 43.8415C47.2475 43.6185 47.408 43.2461 47.3594 42.87L46.6437 37.1574L50.5772 32.9566H50.5767C50.8338 32.6845 50.9248 32.2949 50.8138 31.937C50.7027 31.5796 50.4078 31.3094 50.0415 31.2306L44.3891 30.1471L41.5867 25.0765C41.4038 24.7476 41.0566 24.5432 40.6801 24.5432C40.3035 24.5432 39.9568 24.7476 39.7739 25.0765L36.9981 30.1136L31.312 31.2306C30.941 31.302 30.6387 31.5689 30.5216 31.9277C30.4049 32.2865 30.4922 32.6808 30.7497 32.9566L30.7767 32.9299ZM37.8607 32.0602C38.1612 32.0018 38.4211 31.8129 38.5695 31.545L40.6767 27.7254L42.784 31.545C42.9323 31.8129 43.1922 32.0018 43.4927 32.0602L47.7739 32.8828L44.7903 36.0669H44.7908C44.5794 36.2913 44.4791 36.5974 44.5164 36.903L45.0647 41.2644L41.1181 39.4115C40.8387 39.2799 40.5148 39.2799 40.2353 39.4115L36.2888 41.2644L36.8305 36.9367C36.8678 36.6311 36.7671 36.3245 36.5562 36.1006L33.5726 32.9165L37.8607 32.0602Z" fill="#3965D6"/>
</g>
<circle id="Ellipse 21" cx="40.3555" cy="40" r="39" stroke="#3965D6" stroke-width="2"/>
</g>
</svg>
