<svg width="81" height="80" viewBox="0 0 81 80" fill="none" xmlns="http://www.w3.org/2000/svg">
<g id="Group 355">
<g id="Group 558">
<path id="Vector" d="M26.3281 41.229C26.3292 40.7727 26.6991 40.4023 27.1559 40.4018H36.514C36.9714 40.4018 37.3423 40.7716 37.3434 41.229C37.3434 41.9529 37.6311 42.647 38.1429 43.1592C38.6547 43.671 39.3487 43.9588 40.072 43.9598H42.9061C43.63 43.9588 44.3241 43.671 44.8352 43.1592C45.347 42.6469 45.6347 41.9529 45.6353 41.229V36.6828C45.6304 34.43 44.5883 32.3051 42.8098 30.9219L42.7288 30.6413H44.678L44.6786 30.6418C45.2034 30.6418 45.6287 30.216 45.6287 29.6911C45.6287 29.1663 45.2034 28.7404 44.6786 28.7404H42.1756L41.7454 27.2588C41.4674 26.3163 40.8926 25.4885 40.1062 24.8984C39.3202 24.3083 38.3646 23.9879 37.3819 23.9841H26.3073C25.3245 23.9874 24.3689 24.3083 23.5825 24.8984C22.7966 25.488 22.2217 26.3164 21.9437 27.2588L21.5119 28.7404H19.0034C18.4781 28.7404 18.0527 29.1663 18.0527 29.6911C18.0527 30.216 18.4781 30.6418 19.0034 30.6418H20.9527L20.87 30.9236C19.098 32.3094 18.062 34.4333 18.0603 36.6827V41.223C18.0608 41.9469 18.3491 42.641 18.8609 43.1532C19.3727 43.665 20.0667 43.9527 20.7905 43.9538H23.6052C24.3269 43.9511 25.0177 43.6628 25.5279 43.1527C26.038 42.642 26.3257 41.9507 26.3279 41.229L26.3281 41.229ZM26.3075 25.8868H37.3809C37.952 25.8884 38.5073 26.075 38.9641 26.4182C39.421 26.7614 39.755 27.2427 39.9165 27.791L40.7111 30.5229H22.9754L23.7733 27.791C23.9337 27.2427 24.2672 26.7614 24.724 26.4182C25.1803 26.075 25.7356 25.8884 26.3072 25.8868H26.3075ZM24.4272 41.229C24.4262 41.6865 24.0552 42.0568 23.5978 42.0568H20.7832C20.3263 42.0568 19.9554 41.6864 19.9554 41.229V36.6828C19.956 35.0223 20.7185 33.4532 22.0233 32.4258H41.6665C42.9713 33.4538 43.7333 35.0223 43.7344 36.6828V41.2231C43.7333 41.6799 43.3635 42.0503 42.9066 42.0508H40.0725C39.6156 42.0503 39.2458 41.6799 39.2453 41.2231C39.2442 40.4997 38.9565 39.8056 38.4441 39.294C37.9323 38.7822 37.2383 38.4944 36.5145 38.4944H27.1564C26.4319 38.4944 25.7369 38.7833 25.2251 39.2961C24.7132 39.809 24.4261 40.5046 24.4277 41.2291L24.4272 41.229Z" fill="#3965D6" stroke="#3965D6" stroke-width="0.3"/>
<path id="Vector_2" d="M32.2417 20.4066H32.9015V21.0696C32.9015 21.5944 33.3273 22.0197 33.8522 22.0197C34.377 22.0197 34.8029 21.5944 34.8029 21.0696V20.4066H35.4642C35.9891 20.4066 36.4149 19.9807 36.4149 19.4559C36.4149 18.931 35.9891 18.5052 35.4642 18.5052H34.8029V17.8411C34.8029 17.3162 34.377 16.8904 33.8522 16.8904C33.3273 16.8904 32.9015 17.3162 32.9015 17.8411V18.5052H32.2417C31.7169 18.5052 31.291 18.931 31.291 19.4559C31.291 19.9807 31.7169 20.4066 32.2417 20.4066Z" fill="#3965D6" stroke="#3965D6" stroke-width="0.3"/>
<path id="Vector_3" d="M17.1776 45.2683H16.5162V44.6054C16.5265 44.3465 16.4308 44.0946 16.2513 43.9081C16.0718 43.721 15.8238 43.6155 15.5649 43.6155C15.3055 43.6155 15.0575 43.721 14.878 43.9081C14.6985 44.0946 14.6028 44.3465 14.6132 44.6054V45.2683H13.9507C13.4253 45.2683 13 45.6937 13 46.219C13 46.7439 13.4253 47.1698 13.9507 47.1698H14.6104V47.8327V47.8322C14.6306 48.3429 15.0504 48.7465 15.5617 48.7465C16.0729 48.7465 16.4928 48.3429 16.5129 47.8322V47.1692H17.1743V47.1698C17.6991 47.1698 18.125 46.7439 18.125 46.219C18.125 45.6937 17.6991 45.2683 17.1743 45.2683H17.1776Z" fill="#3965D6" stroke="#3965D6" stroke-width="0.3"/>
<path id="Vector_4" d="M47.0221 22.3434C47.1988 22.5207 47.4365 22.6224 47.6867 22.6284C47.8167 22.6219 47.9445 22.5963 48.0674 22.5533C48.1778 22.5 48.279 22.4288 48.3671 22.3434C48.4519 22.2548 48.5221 22.1536 48.576 22.0437C48.6195 21.9279 48.6456 21.8061 48.6521 21.682C48.6439 21.427 48.5428 21.1833 48.3671 20.9967C48.2795 20.9163 48.1778 20.8521 48.0674 20.8064C47.7101 20.6617 47.3011 20.7357 47.0177 20.9967C46.8469 21.1844 46.7512 21.4286 46.7496 21.682C46.7344 21.9333 46.8328 22.1775 47.0177 22.3477L47.0221 22.3434Z" fill="#3965D6" stroke="#3965D6" stroke-width="0.3"/>
<path id="Vector_5" d="M29.4644 45.3421C29.3475 45.3829 29.2436 45.4552 29.1642 45.5504C28.9837 45.7244 28.8809 45.9648 28.8809 46.2161C28.8809 46.4674 28.9837 46.7078 29.1642 46.8818C29.2436 46.9775 29.347 47.0504 29.4644 47.0917C29.5776 47.1445 29.701 47.1706 29.8256 47.1684C29.9507 47.1722 30.0747 47.1461 30.1873 47.0917C30.3075 47.046 30.4163 46.9737 30.5049 46.8802C30.8628 46.5087 30.8628 45.9208 30.5049 45.5487C30.4097 45.4623 30.301 45.3916 30.1824 45.3404C29.9523 45.2463 29.694 45.2469 29.4644 45.3421Z" fill="#3965D6" stroke="#3965D6" stroke-width="0.3"/>
<path id="Vector_6" d="M18.5269 24.8149C18.6526 24.8193 18.7766 24.7926 18.8897 24.7388C19.0067 24.6975 19.1105 24.6257 19.1899 24.5305C19.2851 24.4511 19.3574 24.3477 19.3982 24.2303C19.4521 24.1177 19.4776 23.9937 19.4733 23.8691C19.476 23.7446 19.4505 23.6206 19.3982 23.5074C19.3575 23.3905 19.2851 23.2866 19.1899 23.2078C19.1105 23.112 19.0066 23.0397 18.8897 22.9978C18.6586 22.9021 18.3986 22.9021 18.1669 22.9978C18.05 23.0392 17.9461 23.1115 17.8672 23.2078C17.7715 23.2872 17.6992 23.3905 17.6573 23.5074C17.6051 23.6206 17.5795 23.7446 17.5822 23.8691C17.5942 24.3891 18.013 24.8079 18.5329 24.8198L18.5269 24.8149Z" fill="#3965D6" stroke="#3965D6" stroke-width="0.3"/>
<path id="Vector_7" d="M48.8209 35.324C48.9857 35.5215 49.2239 35.6438 49.4806 35.6629H49.5513C49.7841 35.6634 50.0088 35.578 50.1822 35.423L56.4903 29.8302L56.4908 29.8297C56.8835 29.4811 56.9194 28.8801 56.5707 28.4874C56.2221 28.0942 55.6211 28.0583 55.2279 28.4069L49.6531 33.3551L48.4266 31.8855C48.2684 31.6827 48.034 31.5527 47.7778 31.5249C47.5222 31.4977 47.2654 31.5755 47.068 31.7403C46.87 31.9057 46.7477 32.1439 46.7292 32.4006C46.7101 32.6573 46.7961 32.9108 46.9674 33.1033L48.8209 35.324Z" fill="#3965D6" stroke="#3965D6" stroke-width="0.3"/>
<path id="Vector_8" d="M68.0478 35.6638H61.8655C61.6131 35.6638 61.3711 35.7639 61.1927 35.9428C61.0143 36.1212 60.9142 36.3632 60.9148 36.6156V38.7824H55.2589C54.1608 38.7829 53.1014 39.1854 52.2796 39.9131L45.6475 45.7875C44.9714 46.3815 44.5178 47.1881 44.3623 48.0746C44.2067 48.9611 44.3579 49.8738 44.7914 50.6624L42.7583 52.3583H42.7577C42.5505 52.5313 42.2889 52.6259 42.0186 52.627H27.4742C26.1748 52.6531 24.9854 53.3612 24.3431 54.4915C23.7007 55.6211 23.7007 57.0053 24.3431 58.1355C24.9854 59.2652 26.1748 59.9733 27.4742 60H46.1761C47.3275 60.0016 48.4387 59.5736 49.2915 58.8002L56.6851 52.0784H60.9149V53.5779H60.9155C60.9149 53.8297 61.015 54.0718 61.1934 54.2502C61.3718 54.4285 61.6138 54.5286 61.8662 54.5286H68.0485C68.3008 54.5286 68.5428 54.4286 68.7212 54.2502C68.8991 54.0718 68.9992 53.8297 68.9992 53.5779V36.6164C68.9992 36.364 68.8996 36.122 68.7212 35.9436C68.5428 35.7647 68.3008 35.6646 68.0485 35.6646L68.0478 35.6638ZM56.3162 50.179C56.0796 50.179 55.8522 50.2677 55.6771 50.4265L48.0121 57.3958C47.509 57.8521 46.8542 58.1051 46.1755 58.1051H27.4707C26.4852 58.1051 25.6863 57.3061 25.6863 56.3206C25.6863 55.3352 26.4853 54.5362 27.4707 54.5362H42.0152C42.7276 54.5346 43.4172 54.2839 43.9644 53.827L46.0518 52.0877H46.0513C46.7692 52.5761 47.6269 52.8154 48.4939 52.7691C49.3603 52.7235 50.1881 52.3944 50.85 51.8331L55.4878 47.9209C55.8891 47.5821 55.9403 46.9822 55.6014 46.5802C55.2631 46.1789 54.6627 46.1277 54.2613 46.4666L49.622 50.3803V50.3798C49.0548 50.8421 48.2868 50.9737 47.5977 50.7262C46.9091 50.4793 46.4001 49.8892 46.2565 49.1718C46.1129 48.4544 46.3555 47.7136 46.8961 47.2203L53.5402 41.3322C54.0139 40.9118 54.6253 40.6801 55.2584 40.6801H60.9142V50.1791L56.3162 50.179ZM67.0971 52.6352H62.8162V37.5673H67.0971V52.6352Z" fill="#3965D6" stroke="#3965D6" stroke-width="0.3"/>
</g>
<circle id="Ellipse 21" cx="40.3555" cy="40" r="39" stroke="#3965D6" stroke-width="2"/>
</g>
</svg>
