<svg width="81" height="80" viewBox="0 0 81 80" fill="none" xmlns="http://www.w3.org/2000/svg">
<g id="Group 356">
<g id="Group 555">
<path id="Vector" d="M30.2143 31.7423C31.5482 31.7423 32.6336 30.6568 32.6336 29.3229C32.6336 27.989 31.5482 26.9036 30.2143 26.9036C28.8804 26.9036 27.7949 27.989 27.7949 29.3229C27.7949 30.6568 28.8804 31.7423 30.2143 31.7423ZM30.2143 28.5165C30.6585 28.5165 31.0207 28.8786 31.0207 29.3229C31.0207 29.7672 30.6585 30.1294 30.2143 30.1294C29.77 30.1294 29.4078 29.7672 29.4078 29.3229C29.4078 28.8786 29.77 28.5165 30.2143 28.5165Z" fill="#3965D6"/>
<path id="Vector_2" d="M64.3366 35.2086C63.8689 33.2886 63.1114 31.4625 62.08 29.7676L63.6591 27.1369L58.2058 21.6836L55.5751 23.2627C53.8801 22.2313 52.0541 21.4741 50.1341 21.0061L49.3914 18.0326H45.5359V19.6455H48.1321L48.8111 22.3633L49.3014 22.4699C51.3755 22.9181 53.3369 23.7311 55.1294 24.8868L55.5514 25.1579L57.9563 23.7153L61.6282 27.3872L60.1856 29.7921L60.4567 30.2141C61.6124 32.007 62.4253 33.968 62.8736 36.0421L62.9802 36.5324L65.6972 37.2107V42.4026L62.9794 43.0816L62.8729 43.572C62.4246 45.6461 61.6117 47.6074 60.456 49.4L60.1849 49.8219L61.6275 52.2269L57.9556 55.8988L55.5506 54.4562L55.1287 54.7273C53.3358 55.8829 51.3748 56.6959 49.3007 57.1441L48.8103 57.2507L48.132 59.9681H46.1295C45.1078 58.5075 43.4167 57.5488 41.5037 57.5488H40.2649L37.5352 54.323H46.3424V47.8714H32.0761L31.0198 46.6228L27.9891 50.205C25.3382 48.2907 23.7617 45.2698 23.7617 41.9673C23.7617 38.9882 25.1165 36.1342 27.3922 34.2052C28.2232 34.6873 29.1851 34.9681 30.2133 34.9681C31.0803 34.9681 31.8979 34.7665 32.6327 34.4158V36.581C31.7431 36.581 31.0198 37.3043 31.0198 38.1939V39.8068C31.0198 40.6964 31.7431 41.4197 32.6327 41.4197V44.6455H37.4714V41.4197H40.6972V44.6455H45.5359V41.4197C46.4255 41.4197 47.1488 40.6964 47.1488 39.8068V38.1939C47.1488 37.3043 46.4255 36.581 45.5359 36.581V26.0971C53.0956 26.0971 59.2456 32.2471 59.2456 39.8068C59.2456 46.4945 54.4705 52.1763 47.8917 53.3146L48.1667 54.9041C55.5205 53.6307 60.8589 47.2817 60.8589 39.8064C60.8589 31.3574 53.9853 24.4839 45.5363 24.4839V22.871C45.5363 21.537 44.4509 20.4516 43.117 20.4516H42.3105V18.8387C43.2001 18.8387 43.9234 18.1154 43.9234 17.2258V15.6129C43.9234 14.7233 43.2001 14 42.3105 14H35.8589C34.9693 14 34.246 14.7233 34.246 15.6129V17.2258C34.246 18.1154 34.9693 18.8387 35.8589 18.8387V20.4516H35.0525C33.7185 20.4516 32.6331 21.537 32.6331 22.871V24.2297C31.8983 23.879 31.0807 23.6774 30.2138 23.6774C27.4977 23.6774 25.2242 25.6064 24.6889 28.1661C20.0647 31.271 17.3105 36.3991 17.3105 41.967C17.3105 47.1499 19.7252 52.0103 23.8082 55.1467L21.3428 58.0596V64H47.1492V63.1935C47.1492 62.633 47.0646 62.0919 46.9112 61.5806H49.3918L50.1345 58.6072C52.0545 58.1395 53.8806 57.382 55.5755 56.3506L58.2062 57.9297L63.6595 52.4764L62.0804 49.8457C63.1118 48.1507 63.869 46.3247 64.337 44.4047L67.3104 43.662V35.9507L64.3366 35.2086ZM44.7293 49.4841V52.7099H36.1705L33.4408 49.4841H44.7293ZM38.152 57.5486H33.7972C34.0744 57.072 34.2454 56.5261 34.2454 55.9357C34.2454 54.1568 32.7985 52.7099 31.0196 52.7099C29.2407 52.7099 27.7938 54.1568 27.7938 55.9357C27.7938 56.5262 27.9648 57.0719 28.2421 57.5486H23.8872L31.0196 49.1198L38.152 57.5486ZM29.4067 55.9357C29.4067 55.0461 30.13 54.3228 31.0196 54.3228C31.9092 54.3228 32.6325 55.0461 32.6325 55.9357C32.6325 56.8253 31.9092 57.5486 31.0196 57.5486C30.13 57.5486 29.4067 56.8253 29.4067 55.9357ZM35.8583 43.0325H34.2454V41.4196H35.8583V43.0325ZM43.9228 43.0325H42.3099V41.4196H43.9228V43.0325ZM45.5357 39.8067H32.6325V38.1938H45.5357V39.8067ZM35.8583 15.6132H42.3099V17.2261H35.8583V15.6132ZM37.4712 18.839H40.697V20.4519H37.4712V18.839ZM35.0518 22.0648H43.1164C43.5606 22.0648 43.9228 22.427 43.9228 22.8713V36.5809H34.2454V33.2665C35.2412 32.248 35.8583 30.8569 35.8583 29.3229C35.8583 27.7891 35.2412 26.3981 34.2454 25.3792V22.8713C34.2454 22.427 34.6076 22.0648 35.0518 22.0648ZM30.2131 25.2906C32.4366 25.2906 34.2454 27.0994 34.2454 29.3229C34.2454 31.5464 32.4366 33.3551 30.2131 33.3551C27.9896 33.3551 26.1809 31.5464 26.1809 29.3229C26.1809 27.0994 27.9896 25.2906 30.2131 25.2906ZM18.9228 41.9671C18.9228 37.3314 21.0391 33.0349 24.6422 30.1938C24.8211 31.3423 25.3446 32.3752 26.1068 33.1856C23.6204 35.4131 22.1487 38.6219 22.1487 41.9673C22.1487 45.7706 23.9391 49.2671 26.9309 51.4539L24.8504 53.9129C21.1277 51.0831 18.923 46.6724 18.923 41.9673L18.9228 41.9671ZM22.9551 62.3873V59.1615H41.5035C43.4512 59.1615 45.0799 60.5494 45.4543 62.3873H22.9551Z" fill="#3965D6"/>
<path id="Vector_3" d="M44.7285 56.7422H46.3414V58.3551H44.7285V56.7422Z" fill="#3965D6"/>
<path id="Vector_4" d="M56.9414 52.3532L58.082 51.2126L59.2225 52.3532L58.082 53.4937L56.9414 52.3532Z" fill="#3965D6"/>
<path id="Vector_5" d="M62.4707 39.0002H64.0836V40.6131H62.4707V39.0002Z" fill="#3965D6"/>
<path id="Vector_6" d="M56.9414 27.2602L58.082 26.1196L59.2225 27.2602L58.082 28.4007L56.9414 27.2602Z" fill="#3965D6"/>
</g>
<circle id="Ellipse 21" cx="40.6445" cy="40" r="39" stroke="#3965D6" stroke-width="2"/>
</g>
</svg>
