<?xml version="1.0" standalone="no"?>
<!DOCTYPE svg PUBLIC "-//W3C//DTD SVG 20010904//EN"
 "http://www.w3.org/TR/2001/REC-SVG-20010904/DTD/svg10.dtd">
<svg version="1.0" xmlns="http://www.w3.org/2000/svg"
 width="1246.000000pt" height="735.000000pt" viewBox="0 0 1246.000000 735.000000"
 preserveAspectRatio="xMidYMid meet">

<g transform="translate(0.000000,735.000000) scale(0.100000,-0.100000)"
fill="#DE0000" stroke="none">
<path d="M3995 6638 c-225 -392 -633 -1104 -908 -1583 -485 -845 -1485 -2600
-2212 -3880 -197 -346 -422 -742 -500 -880 -78 -137 -147 -260 -154 -272 l-12
-23 775 0 775 0 25 43 c13 23 194 341 401 707 208 366 687 1203 1065 1860 766
1332 1005 1749 1265 2210 98 173 456 803 795 1400 339 597 622 1095 629 1108
l12 22 -774 0 -773 0 -409 -712z"/>
<path d="M6983 6389 c-36 -7 -78 -34 -96 -62 -8 -12 -112 -195 -232 -407
-1369 -2417 -2846 -4964 -3286 -5667 l-157 -253 4624 0 4624 0 0 1526 0 1526
-176 311 c-97 172 -186 323 -198 335 -50 55 71 52 -1893 52 -2076 0 -1858 11
-1926 -96 -21 -32 -181 -304 -356 -604 -175 -300 -345 -592 -379 -650 l-62
-105 1914 -5 1914 -5 43 -30 c31 -22 54 -52 87 -115 24 -47 83 -152 132 -235
143 -244 450 -787 450 -796 0 -5 -1430 -9 -3276 -9 -3116 0 -3276 1 -3269 18
21 55 468 847 1015 1797 345 600 730 1270 855 1490 125 220 237 412 247 427
11 16 39 39 63 53 l43 26 1846 -1 c1015 0 1846 1 1846 3 0 2 -150 267 -333
588 -183 321 -364 639 -401 706 -70 126 -120 183 -159 183 -1225 4 -3484 3
-3504 -1z"/>
</g>
</svg>
