<svg id="eGLcCZPF26B1" xmlns="http://www.w3.org/2000/svg" xmlns:xlink="http://www.w3.org/1999/xlink" viewBox="0 0 31 61" shape-rendering="geometricPrecision" text-rendering="geometricPrecision"><path d="M177.8,268.091h-25.5c-1.1,0-2,.9-2,2v.3c0,1.1.9,2,2,2h.4v40h-.4c-1.1,0-2,.9-2,2v.3c0,1.1.9,2,2,2h25.5c1.1,0,2-.9,2-2v-.3c0-1.1-.9-2-2-2h-.4v-40h.4c1.1,0,2-.9,2-2v-.3c0-1.1-.9-2-2-2Z" transform="translate(-150.3-257.091)" fill="#fff"/><path d="M165.6,266.791h6.4l-2.3-7.6h-4.1-1-4.1l-2.3,7.6h6.4h1Z" transform="translate(-151.2-259.191)" fill="#fff"/></svg>
