<svg width="45" height="45" viewBox="0 0 45 45" fill="none" xmlns="http://www.w3.org/2000/svg">
<circle cx="22.5" cy="22.5" r="21.5" stroke="#F3F3F3" stroke-width="2"/>
<path d="M27.0661 17.3251V14.9626C27.0661 14.336 26.8234 13.7351 26.3916 13.2921C25.9597 12.849 25.3739 12.6001 24.7631 12.6001H16.7028C16.0921 12.6001 15.5063 12.849 15.0744 13.2921C14.6425 13.7351 14.3999 14.336 14.3999 14.9626V29.1376C14.3999 29.7642 14.6425 30.3651 15.0744 30.8081C15.5063 31.2512 16.0921 31.5001 16.7028 31.5001H24.7631C25.3739 31.5001 25.9597 31.2512 26.3916 30.8081C26.8234 30.3651 27.0661 29.7642 27.0661 29.1376V26.7751M20.1573 22.0501H33.9749M33.9749 22.0501L30.5205 18.5063M33.9749 22.0501L30.5205 25.5938" stroke="#A3A1A1" stroke-width="2" stroke-linecap="round" stroke-linejoin="round"/>
</svg>
