<svg width="33" height="35" viewBox="0 0 33 35" fill="none" xmlns="http://www.w3.org/2000/svg">
<g id="logout-04">
<path id="Icon" d="M20.1397 11.375V8.3125C20.1397 7.50027 19.8329 6.72132 19.2869 6.14699C18.7408 5.57266 18.0002 5.25 17.2279 5.25H7.03676C6.26452 5.25 5.5239 5.57266 4.97784 6.14699C4.43177 6.72132 4.125 7.50027 4.125 8.3125V26.6875C4.125 27.4997 4.43177 28.2787 4.97784 28.853C5.5239 29.4273 6.26452 29.75 7.03676 29.75H17.2279C18.0002 29.75 18.7408 29.4273 19.2869 28.853C19.8329 28.2787 20.1397 27.4997 20.1397 26.6875V23.625M11.4044 17.5H28.875M28.875 17.5L24.5074 12.9062M28.875 17.5L24.5074 22.0938" stroke="#A3A1A1" stroke-width="2" stroke-linecap="round" stroke-linejoin="round"/>
</g>
</svg>
