<svg width="273" height="293" viewBox="0 0 273 293" fill="none" xmlns="http://www.w3.org/2000/svg">
<path d="M523.432 3.05176e-05C513.684 14.6853 504.336 28.0937 495.638 41.9808C478.592 69.0634 461.845 96.3058 445.099 123.601C428.353 150.897 412.357 177.181 396.06 204.051C379.164 232.038 362.335 260.043 345.572 288.065C344.868 289.642 343.732 290.954 342.313 291.828C340.893 292.702 339.258 293.097 337.623 292.96C285.535 292.96 233.43 292.96 181.309 292.96C179.863 293.118 178.407 292.805 177.131 292.065C175.855 291.324 174.819 290.189 174.161 288.81C162.513 269.177 150.666 249.703 137.969 228.686L146.017 228.686C198.572 228.686 251.077 228.686 303.531 228.686C305.656 228.897 307.792 228.434 309.669 227.354C311.546 226.275 313.081 224.627 314.079 222.62C339.573 180.054 365.417 138.073 391.061 95.7735C397.41 85.132 403.459 74.4906 410.107 63.3171L108.925 63.3171L128.571 96.0398C131.374 100.159 133.96 104.439 136.319 108.863C137.13 110.888 138.557 112.565 140.369 113.626C142.181 114.687 144.275 115.07 146.317 114.715C201.004 114.715 255.709 114.715 310.43 114.715L317.778 114.715L300.632 142.383C294.183 153.025 287.685 163.187 281.386 173.723C280.64 175.19 279.512 176.397 278.138 177.199C276.764 178.001 275.202 178.364 273.638 178.245C219.717 178.245 165.812 178.245 111.924 178.245C110.373 178.402 108.812 178.078 107.428 177.314C106.045 176.55 104.899 175.376 104.127 173.935C70.0342 116.968 35.892 60.036 1.69974 3.13945C1.19986 2.34135 0.800084 1.48988 0.000279561 7.62774e-05L523.432 3.05176e-05Z" fill="white" fill-opacity="0.5"/>
</svg>
