<svg width="90" height="88" viewBox="0 0 90 88" fill="none" xmlns="http://www.w3.org/2000/svg">
<g id="&#208;&#155;&#208;&#190;&#208;&#179;&#208;&#190;&#209;&#130;&#208;&#184;&#208;&#191;">
<g id="Group 378">
<path id="Vector" d="M19.7764 65.3465C21.0606 63.4159 22.2922 61.6532 23.4381 59.8275C25.6839 56.2671 27.8902 52.6858 30.0964 49.0974C32.3027 45.5091 34.4102 42.0536 36.5572 38.5212C38.7832 34.8419 41.0004 31.1603 43.2089 27.4764C43.3015 27.2691 43.4513 27.0966 43.6382 26.9817C43.8252 26.8668 44.0407 26.8149 44.256 26.8329C51.1185 26.8329 57.9832 26.8329 64.85 26.8329C65.0405 26.8122 65.2324 26.8532 65.4005 26.9506C65.5686 27.048 65.705 27.1971 65.7917 27.3784C67.3262 29.9595 68.8871 32.5196 70.5599 35.2826H69.4996C62.5756 35.2826 55.6583 35.2826 48.7475 35.2826C48.4676 35.2548 48.1863 35.3158 47.9389 35.4577C47.6916 35.5996 47.4895 35.8161 47.3579 36.08C43.9991 41.6759 40.5943 47.1948 37.2157 52.7557C36.3793 54.1547 35.5824 55.5537 34.7065 57.0226H74.3863L71.798 52.7207C71.4287 52.1793 71.088 51.6165 70.7773 51.035C70.6704 50.7688 70.4825 50.5483 70.2437 50.4088C70.0049 50.2693 69.729 50.2189 69.4601 50.2656C62.2552 50.2656 55.048 50.2656 47.8387 50.2656H46.8706L49.1296 46.6283C49.9791 45.2293 50.8353 43.8933 51.6651 42.5083C51.7634 42.3154 51.912 42.1567 52.093 42.0513C52.2741 41.9458 52.4799 41.8981 52.6859 41.9137C59.7898 41.9137 66.8916 41.9137 73.9912 41.9137C74.1956 41.8932 74.4013 41.9356 74.5835 42.0361C74.7658 42.1366 74.9168 42.2909 75.0185 42.4803C79.5101 49.9695 84.0082 57.4539 88.5129 64.9337C88.5788 65.0387 88.6315 65.1506 88.7368 65.3465H19.7764Z" fill="black" stroke="black" stroke-width="1.5"/>
<path id="Vector_2" d="M61.5832 20.4953C61.2473 20.4953 60.997 20.5442 60.7468 20.5442C58.1124 20.5442 55.5439 20.5442 52.9359 20.5442C52.7329 20.5684 52.5278 20.5274 52.347 20.4264C52.1662 20.3254 52.018 20.169 51.9218 19.9776C49.8867 16.5222 47.8188 13.0947 45.7508 9.65324C45.6191 9.42941 45.4676 9.21957 45.2503 8.89781L42.7279 13.0947C38.6842 19.7958 34.6426 26.4992 30.6033 33.2049C29.1676 35.5901 27.7451 37.9894 26.2962 40.3676C23.3194 45.264 20.3228 50.1604 17.346 55.0568C15.3746 58.321 13.4186 61.5737 11.478 64.8146C11.3842 65.0224 11.2333 65.1951 11.0452 65.31C10.8571 65.4249 10.6406 65.4765 10.4243 65.4581C7.58575 65.4581 4.75386 65.4581 1.73096 65.4581C2.38954 64.311 2.99543 63.2897 3.60791 62.2825C7.77017 55.3576 11.9412 48.4373 16.121 41.5218C20.3887 34.464 24.6826 27.4411 28.9635 20.3833C32.7437 14.1299 36.5021 7.86255 40.2384 1.58118C40.3326 1.38906 40.4792 1.23158 40.6589 1.12926C40.8387 1.02694 41.0433 0.984546 41.2461 1.00762C43.8804 1.00762 46.5147 1.0426 49.1491 1.00762C49.4163 0.977874 49.6857 1.03563 49.9212 1.17317C50.1566 1.3107 50.3468 1.52143 50.4662 1.77706C52.8108 5.71516 55.1883 9.63926 57.546 13.5704C58.8632 15.7248 60.108 17.8932 61.3922 20.0476C61.4317 20.1595 61.4778 20.2784 61.5832 20.4953Z" fill="black" stroke="black" stroke-width="1.5"/>
</g>
<g id="Group 379">
<path id="Vector_3" d="M29.06 74.6908V78.1239H22.1653C21.7741 78.122 21.3865 78.2034 21.0254 78.3631C20.6642 78.5228 20.3369 78.7578 20.0625 79.054C19.7882 79.3502 19.5725 79.7017 19.4281 80.0879C19.2837 80.474 19.2136 80.8869 19.2218 81.3023C19.2151 81.7105 19.2859 82.116 19.4299 82.4945C19.5739 82.873 19.7883 83.2169 20.0601 83.5056C20.3319 83.7943 20.6556 84.0219 21.012 84.1749C21.3684 84.3278 21.7502 84.403 22.1345 84.3959C23.3635 84.3959 24.5372 84.3959 25.7416 84.3959C25.7846 84.3959 25.8215 84.3503 25.8645 84.3372C25.9076 84.3242 25.9137 84.2915 25.9137 84.2719C26.0735 82.7121 26.0735 82.7121 24.6233 82.7121H21.9256V79.9317H29.0231V87.9791C26.0735 87.7572 23.13 88.3446 20.2357 87.5222C17.2062 86.6607 15.6638 83.7041 15.9342 80.604C16.0783 78.9188 16.8329 77.359 18.0389 76.2534C19.2449 75.1478 20.8081 74.5828 22.3988 74.6778C24.568 74.7365 26.774 74.6908 29.06 74.6908Z" fill="black"/>
<path id="Vector_4" d="M61.3089 74.7368V78.0785H52.841V84.3832H61.444C61.444 85.4732 61.444 86.4848 61.444 87.4899C61.444 88.0511 61.0753 87.9402 60.7742 87.9402H49.5596V74.7368H61.3089Z" fill="black"/>
<path id="Vector_5" d="M16.4441 87.9465C15.2704 87.9465 14.2196 87.9857 13.1749 87.9465C13.018 87.9042 12.8726 87.823 12.7509 87.7095C12.6291 87.5961 12.5344 87.4537 12.4744 87.2939C12.0996 86.1387 11.4359 85.7471 10.2745 85.8515C8.86726 85.982 7.44776 85.8515 5.89921 85.8515C6.38467 84.8921 6.7841 84.0502 7.24497 83.2409C7.32389 83.1532 7.41956 83.0846 7.52556 83.0395C7.63156 82.9945 7.74543 82.9741 7.85948 82.9798C8.63375 82.9471 9.40802 82.9798 10.3175 82.9798L8.27733 78.8549C7.66283 80.1603 7.04832 81.2633 6.50756 82.3989C5.64726 84.1089 4.79926 85.8254 3.91438 87.5223C3.84804 87.6353 3.75809 87.7306 3.65154 87.8007C3.54498 87.8709 3.42466 87.9141 3.29988 87.927C2.24908 87.9661 1.19214 87.927 0 87.927C0.448587 87.0263 0.848006 86.2104 1.25972 85.4077C2.88816 82.2553 4.53502 79.116 6.17574 75.9571C6.32976 75.5643 6.59144 75.2298 6.92677 74.997C7.2621 74.7642 7.65558 74.6439 8.05612 74.6518C8.51457 74.5876 8.98037 74.6793 9.38666 74.9138C9.79294 75.1484 10.1188 75.5136 10.3175 75.9571C12.2532 79.7882 14.2503 83.5802 16.229 87.3918C16.2597 87.5288 16.3151 87.6724 16.4441 87.9465Z" fill="black"/>
<path id="Vector_6" d="M75.4855 74.7039V78.0586C75.2397 78.0586 75.0062 78.1042 74.7727 78.1042C72.9292 78.1042 71.0427 78.1564 69.1807 78.1042C68.4102 78.1338 67.6793 78.4744 67.1369 79.0565C66.5946 79.6386 66.2817 80.4184 66.2618 81.237C66.2477 81.6504 66.3126 82.0626 66.4527 82.4486C66.5927 82.8347 66.805 83.1865 67.0766 83.483C67.3483 83.7795 67.6737 84.0144 68.0333 84.1735C68.3928 84.3327 68.7789 84.4128 69.1684 84.409C71.2516 84.3698 73.3348 84.409 75.4732 84.409V87.9986C72.665 87.8159 69.8813 88.338 67.1651 87.5352C65.9472 87.1705 64.8743 86.394 64.1092 85.3234C63.3441 84.2529 62.9284 82.9466 62.9251 81.6025C62.8575 79.0441 63.7178 77.0339 65.7825 75.7285C66.5924 75.1982 67.5078 74.8764 68.4556 74.7887C70.7723 74.6125 73.1074 74.7039 75.4855 74.7039Z" fill="black"/>
<path id="Vector_7" d="M35.6167 74.73H48.0358V78.0782H43.5438V87.9138C42.4807 87.9138 41.4791 87.9138 40.4713 87.9138C40.3422 87.9138 40.1333 87.4765 40.1333 87.2611C40.1333 84.5265 40.1333 81.7918 40.1333 79.0571V78.1238H35.6229L35.6167 74.73Z" fill="black"/>
<path id="Vector_8" d="M86.6691 82.7773H81.833V79.514H86.6384V74.73H89.9567C89.9567 74.9519 89.9998 75.1542 89.9998 75.3826C89.9998 79.2986 89.9998 83.2146 89.9998 87.1828C89.9998 87.7767 89.883 88.0247 89.2746 87.9856C88.4266 87.9268 87.5663 87.9856 86.6568 87.9856L86.6691 82.7773Z" fill="black"/>
<path id="Vector_9" d="M80.6841 87.9138H77.3965V74.73H80.6841V87.9138Z" fill="black"/>
<path id="Vector_10" d="M53.9165 82.6339V79.8862H61.2414V82.6339H53.9165Z" fill="black"/>
</g>
</g>
</svg>
