<svg width="24" height="22" viewBox="0 0 24 22" fill="none" xmlns="http://www.w3.org/2000/svg">
<path d="M4.72692 4.70866C6.55142 2.93707 9.13423 1.83333 11.9999 1.83333C14.8655 1.83333 17.4483 2.93706 19.2728 4.70866C19.652 5.07679 20.2849 5.09349 20.6865 4.74596C21.0881 4.39842 21.1063 3.81826 20.7272 3.45013C18.5406 1.32696 15.4385 0 11.9999 0C8.56129 0 5.45919 1.32696 3.2726 3.45013C2.89347 3.81826 2.91169 4.39842 3.31329 4.74596C3.71489 5.09349 4.34779 5.07679 4.72692 4.70866Z" fill="white"/>
<path d="M4.72692 17.2913C4.34779 16.9232 3.71489 16.9065 3.31329 17.254C2.91169 17.6016 2.89347 18.1817 3.2726 18.5499C5.45918 20.673 8.56129 22 11.9999 22C15.4385 22 18.5406 20.673 20.7272 18.5499C21.1063 18.1817 21.0881 17.6016 20.6865 17.254C20.2849 16.9065 19.652 16.9232 19.2728 17.2913C17.4483 19.0629 14.8655 20.1667 11.9999 20.1667C9.13423 20.1667 6.55142 19.0629 4.72692 17.2913Z" fill="white"/>
<path d="M0.589844 13.9738C0.589844 14.458 1.01846 14.8483 1.55584 14.8483C2.07215 14.8483 2.49784 14.4554 2.49784 13.9738V10.3474L5.52359 14.3918C5.70917 14.6466 5.99004 14.8483 6.36784 14.8483C6.67322 14.8483 6.91456 14.7537 7.07801 14.5867C7.2391 14.4221 7.30984 14.2021 7.30984 13.9738V7.65976C7.30984 7.17817 6.88415 6.78526 6.36784 6.78526C5.83046 6.78526 5.40184 7.17549 5.40184 7.65976V11.2047L2.31572 7.1532C2.17366 6.95854 1.93888 6.78526 1.55584 6.78526C1.01846 6.78526 0.589844 7.17549 0.589844 7.65976V13.9738Z" fill="white"/>
<path d="M8.81913 14.8043H12.4311C12.934 14.8043 13.3491 14.4237 13.3491 13.9628C13.3491 13.4894 12.9324 13.1213 12.4311 13.1213H9.76113V11.5813H11.9031C12.406 11.5813 12.8211 11.2007 12.8211 10.7398C12.8211 10.2664 12.4044 9.89826 11.9031 9.89826H9.76113V8.51226H12.4311C12.934 8.51226 13.3491 8.1317 13.3491 7.67076C13.3491 7.19742 12.9324 6.82926 12.4311 6.82926H8.81913C8.28174 6.82926 7.85313 7.21949 7.85313 7.70376V13.9298C7.85313 14.414 8.28174 14.8043 8.81913 14.8043Z" fill="white"/>
<path d="M21.9089 7.41875L20.8812 11.3538L19.4855 7.39765C19.4383 7.26183 19.3548 7.10854 19.2091 6.98831C19.0602 6.86547 18.8559 6.78526 18.5868 6.78526C18.3176 6.78526 18.1133 6.86547 17.9644 6.98831C17.8185 7.10864 17.735 7.26216 17.6878 7.39807L16.2923 11.3538L15.2646 7.41867C15.2233 7.26097 15.1385 7.10109 14.9881 6.98023C14.8357 6.85778 14.6281 6.78526 14.3628 6.78526C13.8224 6.78526 13.4088 7.17817 13.4088 7.65976C13.4088 7.78894 13.4333 7.8778 13.4555 7.95836L13.4612 7.97912L15.3342 14.2083C15.4475 14.585 15.7931 14.8483 16.2588 14.8483C16.7244 14.8483 17.0561 14.5854 17.1702 14.2339L17.1706 14.2328L18.5868 10.0887L20.0029 14.2328L20.0033 14.2339C20.1174 14.5854 20.4491 14.8483 20.9148 14.8483C21.3804 14.8483 21.726 14.585 21.8394 14.2083L23.7114 7.9823L23.7123 7.97911L23.718 7.95836C23.7402 7.87779 23.7648 7.78894 23.7648 7.65976C23.7648 7.17817 23.3511 6.78526 22.8108 6.78526C22.5454 6.78526 22.3378 6.85778 22.1854 6.98023C22.035 7.10109 21.9502 7.26105 21.9089 7.41875Z" fill="white"/>
</svg>
