<svg width="16" height="15" viewBox="0 0 16 15" fill="none" xmlns="http://www.w3.org/2000/svg">
<g id="new tag">
<g id="Icon">
<path d="M3.15124 3.66121C4.36758 2.53384 6.08945 1.83146 7.99988 1.83146C9.91031 1.83146 11.6322 2.53384 12.8485 3.66121C13.1013 3.89548 13.5232 3.90611 13.7909 3.68495C14.0587 3.46379 14.0708 3.0946 13.8181 2.86033C12.3603 1.50922 10.2923 0.664795 7.99988 0.664795C5.70748 0.664795 3.63942 1.50922 2.18169 2.86033C1.92894 3.0946 1.94109 3.46379 2.20882 3.68495C2.47655 3.90611 2.89849 3.89548 3.15124 3.66121Z" fill="white"/>
<path d="M3.15124 11.6684C2.89849 11.4341 2.47655 11.4235 2.20882 11.6446C1.94109 11.8658 1.92894 12.235 2.18169 12.4693C3.63942 13.8204 5.70748 14.6648 7.99988 14.6648C10.2923 14.6648 12.3603 13.8204 13.8181 12.4693C14.0708 12.235 14.0587 11.8658 13.7909 11.6446C13.5232 11.4235 13.1013 11.4341 12.8485 11.6684C11.6322 12.7958 9.91031 13.4981 7.99988 13.4981C6.08945 13.4981 4.36757 12.7958 3.15124 11.6684Z" fill="white"/>
<path d="M0.393188 9.55719C0.393188 9.86536 0.678929 10.1137 1.03719 10.1137C1.38139 10.1137 1.66519 9.86365 1.66519 9.55719V7.24949L3.68236 9.82321C3.80607 9.98535 3.99332 10.1137 4.24519 10.1137C4.44877 10.1137 4.60967 10.0535 4.71863 9.94723C4.82602 9.84247 4.87319 9.70247 4.87319 9.55719V5.53919C4.87319 5.23272 4.58939 4.98269 4.24519 4.98269C3.88693 4.98269 3.60119 5.23102 3.60119 5.53919V7.79504L1.54377 5.21683C1.44907 5.09295 1.29255 4.98269 1.03719 4.98269C0.678929 4.98269 0.393188 5.23102 0.393188 5.53919V9.55719Z" fill="white"/>
<path d="M5.87938 10.0857H8.28738C8.6226 10.0857 8.89938 9.84351 8.89938 9.55019C8.89938 9.24897 8.62158 9.01469 8.28738 9.01469H6.50738V8.03469H7.93538C8.2706 8.03469 8.54738 7.79251 8.54738 7.49919C8.54738 7.19797 8.26958 6.96369 7.93538 6.96369H6.50738V6.08169H8.28738C8.6226 6.08169 8.89938 5.83951 8.89938 5.54619C8.89938 5.24497 8.62158 5.01069 8.28738 5.01069H5.87938C5.52112 5.01069 5.23538 5.25902 5.23538 5.56719V9.52919C5.23538 9.83736 5.52112 10.0857 5.87938 10.0857Z" fill="white"/>
<path d="M14.6059 5.38581L13.9207 7.88991L12.9903 5.37239C12.9589 5.28596 12.9032 5.18841 12.806 5.1119C12.7068 5.03373 12.5706 4.98269 12.3911 4.98269C12.2117 4.98269 12.0755 5.03373 11.9762 5.1119C11.879 5.18847 11.8233 5.28617 11.7918 5.37266L10.8615 7.88991L10.1764 5.38577C10.1488 5.28541 10.0923 5.18367 9.99204 5.10676C9.89045 5.02884 9.75205 4.98269 9.57513 4.98269C9.21492 4.98269 8.93913 5.23272 8.93913 5.53919C8.93913 5.62139 8.95548 5.67794 8.97031 5.72921L8.97408 5.74241L10.2227 9.70646C10.2983 9.94617 10.5287 10.1137 10.8391 10.1137C11.1496 10.1137 11.3707 9.94643 11.4468 9.7227L11.447 9.72204L12.3911 7.0849L13.3352 9.72204L13.3355 9.7227C13.4115 9.94643 13.6327 10.1137 13.9431 10.1137C14.2536 10.1137 14.484 9.94615 14.5595 9.70644L15.8076 5.74444L15.8081 5.74241L15.8119 5.72921C15.8268 5.67794 15.8431 5.6214 15.8431 5.53919C15.8431 5.23272 15.5673 4.98269 15.2071 4.98269C15.0302 4.98269 14.8918 5.02884 14.7902 5.10676C14.6899 5.18367 14.6334 5.28546 14.6059 5.38581Z" fill="white"/>
</g>
</g>
</svg>
