<svg width="43" height="44" viewBox="0 0 43 44" fill="none" xmlns="http://www.w3.org/2000/svg">
<g id="ok">
<path id="bg" d="M0 7.49201C0 3.78755 3.00306 0.784485 6.70753 0.784485H36.2206C39.9251 0.784485 42.9282 3.78755 42.9282 7.49201V37.0051C42.9282 40.7096 39.9251 43.7127 36.2206 43.7127H6.70753C3.00306 43.7127 0 40.7096 0 37.0051V7.49201Z" fill="#FF8800"/>
<g id="ok_2">
<path fill-rule="evenodd" clip-rule="evenodd" d="M28.0054 16.1719C28.0054 19.7526 25.0863 22.6717 21.5054 22.6717C17.8857 22.6717 14.9666 19.7526 14.9666 16.1719C14.9666 12.5911 17.8857 9.67194 21.5054 9.67194C25.0863 9.67194 28.0054 12.5911 28.0054 16.1719ZM24.1911 16.1719C24.1911 14.6929 22.9844 13.4863 21.5054 13.4863C19.9875 13.4863 18.7809 14.6929 18.8199 16.1719C18.8199 17.6509 20.0265 18.8574 21.5054 18.8574C22.9844 18.8574 24.1911 17.6509 24.1911 16.1719Z" fill="white"/>
<path d="M27.8886 26.4473C26.721 27.1867 25.4365 27.6927 24.1133 28.0041L27.8108 31.5849C28.5502 32.3245 28.5502 33.531 27.8108 34.2706C27.0714 35.01 25.8647 35.01 25.1253 34.2706L21.5444 30.6897L17.9636 34.2706C17.5744 34.6208 17.1073 34.8154 16.6014 34.8154C16.0954 34.8154 15.6283 34.6598 15.2391 34.2706C14.4996 33.531 14.4996 32.3245 15.2391 31.5849L18.8589 27.9651C17.5355 27.6537 16.2511 27.1479 15.0834 26.4083C14.1882 25.8635 13.9157 24.6958 14.4217 23.8006C15.0056 22.9053 16.1732 22.6719 17.0684 23.2168C19.7151 24.8904 23.179 24.8904 25.8257 23.2168C26.721 22.6329 27.9276 22.9053 28.4724 23.8006C29.0563 24.6958 28.7838 25.9023 27.8886 26.4473Z" fill="white"/>
</g>
</g>
</svg>
