<svg width="104" height="82" viewBox="0 0 104 82" fill="none" xmlns="http://www.w3.org/2000/svg">
<g id="Group">
<path id="Vector" d="M100.087 14.1016C100.091 13.8265 100.095 13.4832 100.098 13.0558C100.112 11.2327 100.113 7.90077 100.068 1.83381C83.0574 5.5135 73.6413 13.7458 68.3928 22.0375C62.9308 30.6663 61.8953 39.5018 61.7401 43.6856C61.7387 43.7234 61.7359 43.7609 61.7318 43.798L61.7318 43.8689C61.7318 43.8855 61.7315 43.9021 61.731 43.9187C61.7073 44.6322 61.7074 45.2101 61.7132 45.606C61.7161 45.8039 61.7205 45.9561 61.724 46.0567C61.7257 46.1069 61.7273 46.1443 61.7283 46.1681L61.7295 46.1934L61.7297 46.1976L61.7297 46.1978M100.087 14.1016L60.2318 46.2771C61.7297 46.1976 61.7297 46.1977 61.7297 46.1978M100.087 14.1016C99.4489 14.283 98.5765 14.5575 97.5447 14.9505C95.3658 15.7806 92.4533 17.1479 89.5262 19.301C83.6321 23.6364 77.7236 31.138 77.6035 43.6155C77.5996 44.0158 77.7559 44.4011 78.0376 44.6855C78.3193 44.9699 78.7031 45.13 79.1034 45.13L102.5 45.13L102.5 80.4307L61.7318 80.4307L61.7318 46.2771C61.7318 46.2506 61.7311 46.2242 61.7297 46.1978M100.087 14.1016L61.7297 46.1978" stroke="black" stroke-width="3" stroke-linejoin="round"/>
<path id="Vector_2" d="M1.52073 46.2004C1.52212 46.2267 1.52282 46.253 1.52282 46.2794L1.52281 80.4307L42.291 80.4307L42.291 45.13L18.8921 45.13C18.4917 45.13 18.108 44.9699 17.8263 44.6855C17.5446 44.4011 17.3883 44.0158 17.3921 43.6155C17.5122 31.138 23.4208 23.6364 29.3149 19.301C32.242 17.1479 35.1545 15.7806 37.3334 14.9505C38.3652 14.5575 39.2376 14.283 39.8762 14.1016C39.8801 13.8265 39.8839 13.4832 39.887 13.0558C39.9003 11.2327 39.9015 7.90077 39.8572 1.83381C22.8461 5.5135 13.4299 13.7458 8.18144 22.0375C2.71952 30.6663 1.68398 39.5018 1.52882 43.6856C1.52742 43.7234 1.52462 43.7609 1.52048 43.798L1.52048 43.8689C1.52048 43.8847 1.52023 43.9005 1.51973 43.9164C1.49713 44.6303 1.49778 45.2093 1.5039 45.6062C1.50696 45.8046 1.51138 45.9572 1.51493 46.0582C1.51671 46.1087 1.51827 46.1463 1.51932 46.1702L1.5205 46.1957L1.52072 46.2002L1.52073 46.2004ZM1.52073 46.2004C1.52072 46.2003 1.52072 46.2002 0.022815 46.2794M1.52073 46.2004L0.022815 46.2794M0.022815 46.2794C0.022815 46.2794 -0.0263754 45.3494 0.0204768 43.8689L0.022815 46.2794ZM0.022815 46.2794L0.022812 80.4307L0.022815 46.2794Z" stroke="black" stroke-width="3" stroke-linejoin="round"/>
</g>
</svg>
