<svg width="43" height="44" viewBox="0 0 43 44" fill="none" xmlns="http://www.w3.org/2000/svg">
<g id="telegram">
<path id="bg" d="M36.2206 0.928162H6.70753C3.00306 0.928162 0 3.93122 0 7.63569V37.1488C0 40.8533 3.00306 43.8563 6.70753 43.8563H36.2206C39.9251 43.8563 42.9282 40.8533 42.9282 37.1488V7.63569C42.9282 3.93122 39.9251 0.928162 36.2206 0.928162Z" fill="#0088CC"/>
<path id="telegram_2" d="M10.8662 22.0009C16.6279 19.4906 20.4699 17.8357 22.3923 17.0361C27.8811 14.7531 29.0216 14.3566 29.765 14.3433C29.9285 14.3406 30.294 14.3811 30.5308 14.5733C30.7308 14.7355 30.7858 14.9547 30.8121 15.1085C30.8384 15.2623 30.8712 15.6127 30.8452 15.8866C30.5477 19.0118 29.2607 26.5958 28.606 30.0961C28.3289 31.5772 27.7834 32.0738 27.2552 32.1224C26.1075 32.228 25.2359 31.3639 24.1243 30.6352C22.3848 29.4949 21.4021 28.7851 19.7135 27.6724C17.7622 26.3865 19.0272 25.6797 20.1392 24.5247C20.4303 24.2224 25.4873 19.6226 25.5852 19.2054C25.5974 19.1532 25.6088 18.9587 25.4932 18.8559C25.3777 18.7532 25.2071 18.7883 25.084 18.8163C24.9095 18.8559 22.1306 20.6926 16.7473 24.3265C15.9585 24.8682 15.2441 25.1321 14.6039 25.1183C13.8982 25.103 12.5408 24.7193 11.5316 24.3912C10.2939 23.9889 9.31016 23.7762 9.39582 23.0929C9.44044 22.737 9.93056 22.373 10.8662 22.0009Z" fill="white"/>
</g>
</svg>
