<svg width="24" height="24" viewBox="0 0 24 24" fill="none" xmlns="http://www.w3.org/2000/svg">
<g id="&#208;&#178;&#209;&#128;&#208;&#181;&#208;&#188;&#209;&#143;">
<path id="Vector" d="M12 24C9.62667 24 7.30655 23.2963 5.33316 21.9776C3.35977 20.6591 1.82171 18.7849 0.913452 16.5923C0.00519816 14.3995 -0.232442 11.9867 0.230585 9.65893C0.693598 7.33115 1.83649 5.19296 3.51472 3.51472C5.19296 1.83649 7.33115 0.693598 9.65893 0.230585C11.9867 -0.232442 14.3995 0.00519816 16.5923 0.913452C18.7849 1.82171 20.6591 3.35977 21.9776 5.33316C23.2963 7.30655 24 9.62667 24 12C24 15.1827 22.7357 18.2348 20.4853 20.4853C18.2348 22.7357 15.1827 24 12 24ZM12 2C10.0221 2 8.0888 2.58649 6.44431 3.68531C4.79981 4.78412 3.51808 6.34591 2.76121 8.17317C2.00433 10.0004 1.80631 12.0111 2.19215 13.9509C2.578 15.8907 3.53041 17.6725 4.92893 19.0711C6.32747 20.4696 8.10929 21.422 10.0491 21.8079C11.9889 22.1937 13.9996 21.9957 15.8268 21.2388C17.6541 20.4819 19.2159 19.2001 20.3147 17.5557C21.4135 15.9112 22 13.9779 22 12C22 9.34787 20.9464 6.80431 19.0711 4.92893C17.1957 3.05357 14.6521 2 12 2Z" fill="#676767"/>
<path id="Vector_2" d="M15.8501 12.9H12.0501C11.7992 12.8965 11.5594 12.7897 11.3819 12.6022C11.2045 12.4147 11.1034 12.1613 11.1001 11.8962V5.20386C11.1001 4.93763 11.2002 4.68229 11.3784 4.49403C11.5565 4.30578 11.7982 4.20001 12.0501 4.20001C12.302 4.20001 12.5437 4.30578 12.7218 4.49403C12.9 4.68229 13.0001 4.93763 13.0001 5.20386V10.8923H15.8501C16.102 10.8923 16.3437 10.9981 16.5218 11.1864C16.7 11.3746 16.8001 11.6299 16.8001 11.8962C16.8001 12.1624 16.7 12.4178 16.5218 12.606C16.3437 12.7943 16.102 12.9 15.8501 12.9Z" fill="#676767"/>
</g>
</svg>
