<svg width="45" height="45" viewBox="0 0 45 45" fill="none" xmlns="http://www.w3.org/2000/svg">
<circle cx="22.5" cy="22.5" r="21.5" stroke="#E9EFFF" stroke-width="2"/>
<path d="M24.144 14.44C24.4 14.44 24.624 14.512 24.816 14.656C25.008 14.8 25.144 14.992 25.224 15.232L30.24 31H27.168L23.376 18.232C23.312 17.976 23.248 17.72 23.184 17.464C23.12 17.208 23.064 16.96 23.016 16.72H22.344C22.296 16.96 22.24 17.208 22.176 17.464C22.112 17.72 22.04 17.976 21.96 18.232L18.192 31H15.12L20.136 15.232C20.2 14.992 20.328 14.8 20.52 14.656C20.728 14.512 20.96 14.44 21.216 14.44H24.144ZM26.928 23.92V26.272H18.408V23.92H26.928Z" fill="#3965D6"/>
</svg>
