<svg width="43" height="43" viewBox="0 0 43 43" fill="none" xmlns="http://www.w3.org/2000/svg">
<g id="vk">
<path id="bg" d="M0 6.70753C0 3.00306 3.00306 0 6.70753 0H36.2206C39.9251 0 42.9282 3.00306 42.9282 6.70753V36.2206C42.9282 39.9251 39.9251 42.9282 36.2206 42.9282H6.70753C3.00306 42.9282 0 39.9251 0 36.2206V6.70753Z" fill="#0077FF"/>
<g id="vk_2">
<path id="Vector" d="M22.8126 28.8009C15.0497 28.8009 10.6235 22.7913 10.4419 12.7753H14.346C14.4709 20.1204 17.3309 23.2279 19.6007 23.87V12.7753H23.2665V19.1059C25.5023 18.8363 27.863 15.947 28.6574 12.7625H32.3119C32.0139 14.4109 31.4187 15.9722 30.5634 17.3487C29.7081 18.7251 28.6111 19.8873 27.3409 20.7624C28.7584 21.5607 30.0101 22.6898 31.0137 24.0754C32.0173 25.461 32.7498 27.0716 33.1631 28.8009H29.1341C28.2715 25.7576 26.1152 23.3948 23.2665 23.0738V28.8009H22.8239H22.8126Z" fill="white"/>
</g>
</g>
</svg>
