<svg width="43" height="44" viewBox="0 0 43 44" fill="none" xmlns="http://www.w3.org/2000/svg">
<g id="whatsapp">
<path id="bg" d="M36.2206 0.856323H6.70753C3.00306 0.856323 0 3.85939 0 7.56385V37.077C0 40.7814 3.00306 43.7845 6.70753 43.7845H36.2206C39.9251 43.7845 42.9282 40.7814 42.9282 37.077V7.56385C42.9282 3.85939 39.9251 0.856323 36.2206 0.856323Z" fill="#25D366"/>
<path id="whatsapp_2" fill-rule="evenodd" clip-rule="evenodd" d="M28.9764 14.6738C26.9642 12.6616 24.2811 11.5884 21.464 11.5884C15.5614 11.5884 10.7319 16.4178 10.7319 22.3204C10.7319 24.1985 11.2685 26.0766 12.2076 27.6864L10.7319 33.0525L16.3663 31.5768C17.9761 32.3817 19.72 32.9183 21.464 32.9183C27.3666 32.9183 32.196 28.0889 32.196 22.1863C32.196 19.3691 30.9887 16.6861 28.9764 14.6738ZM21.464 31.1744C19.8542 31.1744 18.2444 30.7719 16.9029 29.967L16.6345 29.8328L13.2808 30.7719L14.2199 27.5523L13.9515 27.1498C13.0125 25.6742 12.61 24.0644 12.61 22.4546C12.61 17.6252 16.6346 13.6006 21.464 13.6006C23.8787 13.6006 26.0251 14.5397 27.7691 16.1495C29.513 17.8935 30.3179 20.0399 30.3179 22.4546C30.3179 27.1498 26.4275 31.1744 21.464 31.1744ZM26.2934 24.4668C26.0251 24.3327 24.6836 23.6619 24.4153 23.6619C24.147 23.5278 24.0128 23.5278 23.8787 23.7961C23.7445 24.0644 23.2079 24.601 23.0738 24.8693C22.9396 25.0034 22.8055 25.0034 22.5372 25.0034C22.2689 24.8693 21.464 24.601 20.3908 23.6619C19.5859 22.9912 19.0493 22.0521 18.9151 21.7838C18.781 21.5155 18.9151 21.3814 19.0493 21.2472C19.1834 21.1131 19.3176 20.9789 19.4517 20.8448C19.5859 20.7106 19.5859 20.5765 19.72 20.4423C19.8542 20.3082 19.72 20.174 19.72 20.0399C19.72 19.9057 19.1834 18.5642 18.9151 18.0276C18.781 17.6252 18.5127 17.6252 18.3785 17.6252C18.2444 17.6252 18.1102 17.6252 17.8419 17.6252C17.7077 17.6252 17.4394 17.6252 17.1711 17.8935C16.9028 18.1618 16.2321 18.8325 16.2321 20.174C16.2321 21.5155 17.1712 22.7229 17.3053 22.9912C17.4395 23.1253 19.1834 25.9425 21.8664 27.0157C24.147 27.9547 24.5495 27.6864 25.0861 27.6864C25.6227 27.6864 26.6958 27.0157 26.83 26.4791C27.0983 25.8083 27.0983 25.2717 26.9642 25.2717C26.83 24.601 26.5617 24.601 26.2934 24.4668Z" fill="white"/>
</g>
</svg>
