<svg width="84" height="82" viewBox="0 0 84 82" fill="none" xmlns="http://www.w3.org/2000/svg">
<g id="youtube">
<path id="Ellipse 29" d="M68.666 40.1185C68.666 55.2143 56.13 67.4518 40.666 67.4518C25.202 67.4518 12.666 55.2143 12.666 40.1185C12.666 25.0227 25.202 12.7852 40.666 12.7852C56.13 12.7852 68.666 25.0227 68.666 40.1185Z" fill="white"/>
<g id="youtube_2">
<path d="M48.825 41L37.8 34.85V47.15L48.825 41Z" fill="#FF0000"/>
<path fill-rule="evenodd" clip-rule="evenodd" d="M0 41C0 18.3563 18.804 0 42 0C65.196 0 84 18.3563 84 41C84 63.6437 65.196 82 42 82C18.804 82 0 63.6437 0 41ZM58.275 27.4188C60.1125 27.9313 61.425 29.2125 61.95 31.0063C63 34.3375 63 41 63 41C63 41 63 47.6625 62.2125 50.9938C61.6875 52.7875 60.375 54.0688 58.5375 54.5813C55.125 55.35 42 55.35 42 55.35C42 55.35 28.6125 55.35 25.4625 54.5813C23.625 54.0688 22.3125 52.7875 21.7875 50.9938C21 47.6625 21 41 21 41C21 41 21 34.3375 21.525 31.0063C22.05 29.2125 23.3625 27.9313 25.2 27.4188C28.6125 26.65 41.7375 26.65 41.7375 26.65C41.7375 26.65 55.125 26.65 58.275 27.4188Z" fill="#FF0000"/>
</g>
</g>
</svg>
