<svg width="38" height="38" viewBox="0 0 38 38" fill="none" xmlns="http://www.w3.org/2000/svg">
<g id="&#208;&#183;&#209;&#131;&#208;&#188; &#209;&#132;&#208;&#190;&#209;&#130;&#208;&#190;">
<path id="Icon" d="M13.9341 3.7998H7.17856C5.31306 3.7998 3.80078 5.31209 3.80078 7.17758V13.9331M13.9341 34.1998H7.17856C5.31306 34.1998 3.80078 32.6875 3.80078 30.822V24.0665M24.0674 3.7998H30.823C32.6885 3.7998 34.2008 5.31209 34.2008 7.17758V13.9331M34.2008 24.0665V30.822C34.2008 32.6875 32.6885 34.1998 30.823 34.1998H24.0674M15.2008 24.6998H22.8008C23.8501 24.6998 24.7008 23.8491 24.7008 22.7998V15.1998C24.7008 14.1505 23.8501 13.2998 22.8008 13.2998H15.2008C14.1514 13.2998 13.3008 14.1505 13.3008 15.1998V22.7998C13.3008 23.8491 14.1514 24.6998 15.2008 24.6998Z" stroke="#A3A1A1" stroke-width="2.3" stroke-linecap="round"/>
</g>
</svg>
