<svg xmlns="http://www.w3.org/2000/svg" width="42" height="43" viewBox="0 0 42 43" fill="none">
<path d="M16.5685 22.277C16.7262 23.2159 17.1645 24.0818 17.8225 24.7558C18.4807 25.4294 19.3265 25.8777 20.2436 26.0396C20.2218 25.0485 19.8274 24.1045 19.143 23.4038C18.4583 22.7031 17.5365 22.2993 16.5685 22.277Z" fill="#ff7f00"/>
<path d="M21.7586 16.9634C21.7804 17.9545 22.1748 18.8982 22.8592 19.5992C23.5436 20.2999 24.4657 20.7037 25.4336 20.726C25.2756 19.7871 24.8377 18.9212 24.1797 18.2472C23.5214 17.5736 22.6757 17.1249 21.7586 16.9634Z" fill="#ff7f00"/>
<path d="M21.7586 26.0373C22.6757 25.8759 23.5214 25.4271 24.1797 24.7535C24.8376 24.0796 25.2756 23.2137 25.4336 22.2748C24.4657 22.2971 23.5435 22.7009 22.8592 23.4016C22.1748 24.1026 21.7804 25.0463 21.7586 26.0373Z" fill="#ff7f00"/>
<path d="M20.2415 16.9634C19.3244 17.1249 18.4786 17.5736 17.8203 18.2472C17.1624 18.9212 16.7245 19.7871 16.5664 20.726C17.5344 20.7037 18.4565 20.2999 19.1409 19.5992C19.8253 18.8982 20.2197 17.9545 20.2415 16.9634Z" fill="#ff7f00"/>
<path d="M22.8214 21.5004C22.8214 22.5301 22.0061 23.3648 21.0003 23.3648C19.9945 23.3648 19.1792 22.5301 19.1792 21.5004C19.1792 20.4706 19.9945 19.6359 21.0003 19.6359C22.0061 19.6359 22.8214 20.4706 22.8214 21.5004Z" fill="#ff7f00"/>
<path d="M21 0.250175H21.0636C26.5404 0.273825 31.7879 2.51133 35.6634 6.47904C39.5541 10.4624 41.7437 15.8644 41.75 21.5004C41.7499 27.1373 39.5623 32.5433 35.6704 36.5282C31.7782 40.5127 26.5007 42.75 21 42.75C15.4993 42.75 10.2217 40.5126 6.32959 36.5282C2.43753 32.5431 0.25 27.1371 0.25 21.5001C0.25 15.8631 2.43761 10.457 6.32957 6.47203C10.2218 2.48751 15.4987 0.250175 21 0.250175ZM20.403 40.9372L20.3925 40.9476L21.0002 40.9469C26.0395 40.9409 30.8695 38.8889 34.4311 35.2428L34.2523 35.0681L34.4312 35.2428C37.9923 31.5967 39.9944 26.6543 40.0002 21.5005V21.5003C40.0002 16.3446 37.9997 11.3989 34.4372 7.75157C30.8748 4.10406 26.0411 2.05376 21 2.05376C15.9589 2.05376 11.1255 4.10406 7.56276 7.75156C4.00026 11.3986 1.99985 16.3446 1.99985 21.5003C1.99985 26.6559 4.00027 31.6017 7.56276 35.249C10.9843 38.7522 15.5786 40.7821 20.403 40.9372Z" fill="#ff7f00" stroke="white" stroke-width="0.5"/>
<path d="M32.335 25.1089C32.7923 22.3904 34.4494 20.0406 36.8253 18.7401L37.9329 18.1296C37.5522 16.1232 36.8327 14.2005 35.8062 12.4477C25.9738 11.2119 16.03 11.2119 6.19765 12.4477C5.17104 14.2005 4.4512 16.1235 4.07054 18.1299L4.93978 18.6091C7.27851 19.896 8.91952 22.2006 9.40029 24.8738C9.88077 27.5469 9.1485 30.2988 7.41042 32.3535C8.44234 33.7055 9.66009 34.8974 11.0255 35.8918C11.1056 35.8874 11.1859 35.8956 11.2633 35.9165L11.3637 35.8459C14.2004 33.8491 17.5619 32.7802 21.0041 32.7802C24.4464 32.7802 27.808 33.8491 30.6444 35.8459L30.8483 35.9902C32.182 35.0376 33.3786 33.8985 34.4035 32.6062C32.6306 30.5624 31.8686 27.8005 32.335 25.1089ZM8.24992 18.4284H7.49991C7.08574 18.4284 6.74991 18.0846 6.74991 17.6606C6.74991 17.2365 7.08574 16.8927 7.49991 16.8927H8.24992C8.66409 16.8927 8.99992 17.2365 8.99992 17.6606C8.99992 18.0846 8.66409 18.4284 8.24992 18.4284ZM8.24992 15.357H7.49991C7.08574 15.357 6.74991 15.0132 6.74991 14.5891C6.74991 14.1651 7.08574 13.8213 7.49991 13.8213H8.24992C8.66409 13.8213 8.99992 14.1651 8.99992 14.5891C8.99992 15.0132 8.66409 15.357 8.24992 15.357ZM11.2499 18.4284H10.4999C10.0858 18.4284 9.74993 18.0846 9.74993 17.6606C9.74993 17.2365 10.0858 16.8927 10.4999 16.8927H11.2499C11.6641 16.8927 11.9999 17.2365 11.9999 17.6606C11.9999 18.0846 11.6641 18.4284 11.2499 18.4284ZM11.2499 15.357H10.4999C10.0858 15.357 9.74993 15.0132 9.74993 14.5891C9.74993 14.1651 10.0858 13.8213 10.4999 13.8213H11.2499C11.6641 13.8213 11.9999 14.1651 11.9999 14.5891C11.9999 15.0132 11.6641 15.357 11.2499 15.357ZM21 27.6428C19.4086 27.6428 17.8825 26.9956 16.7575 25.8435C15.6321 24.6917 15 23.1292 15 21.4999C15 19.8706 15.6321 18.3081 16.7575 17.1563C17.8825 16.0042 19.4086 15.357 21 15.357C22.5914 15.357 24.1176 16.0042 25.2426 17.1563C26.3679 18.3081 27.0001 19.8706 27.0001 21.4999C26.9984 23.1286 26.3656 24.69 25.2406 25.8414C24.1159 26.9932 22.5908 27.6411 21 27.6428ZM32.2501 13.8213H33.7501C34.1643 13.8213 34.5001 14.1651 34.5001 14.5891C34.5001 15.0132 34.1643 15.357 33.7501 15.357H32.2501C31.8359 15.357 31.5001 15.0132 31.5001 14.5891C31.5001 14.1651 31.8359 13.8213 32.2501 13.8213ZM31.5001 17.6606C31.5001 17.2365 31.8359 16.8927 32.2501 16.8927H33.7501C34.1643 16.8927 34.5001 17.2365 34.5001 17.6606C34.5001 18.0846 34.1643 18.4284 33.7501 18.4284H32.2501C31.8359 18.4284 31.5001 18.0846 31.5001 17.6606Z" fill="#ff7f00"/>
</svg>