<svg width="114" height="81" viewBox="0 0 114 81" fill="none" xmlns="http://www.w3.org/2000/svg">
<g id="Group 580">
<g id="Group 578">
<path id="Vector" d="M17.6391 47.7314H12.0653V50.5216L13.9656 48.6213C14.5306 48.0569 15.4462 48.0569 16.0112 48.6213L23.7998 56.4098H43.8857V47.7314H35.31L32.3746 50.6669C32.0924 50.9491 31.7217 51.0905 31.3517 51.0905C30.9817 51.0905 30.6117 50.9491 30.3289 50.6669L26.2384 54.7575C25.9562 55.0396 25.5855 55.1811 25.2155 55.1811C24.8455 55.1811 24.4749 55.0396 24.1927 54.7575L18.0565 48.6213C17.8073 48.3727 17.6685 48.0563 17.6388 47.7315L17.6391 47.7314Z" fill="#FF7F00"/>
<path id="Vector_2" d="M39.8971 39.053H42.4386V36.5115L39.8971 39.053Z" fill="#FF7F00"/>
<path id="Vector_3" d="M21.1237 47.5992L24.192 44.5309L28.2832 48.6221L25.2149 51.6905L21.1237 47.5992Z" fill="#FF7F00"/>
<path id="Vector_4" d="M45.3322 40.4996C45.3322 41.2983 44.6845 41.946 43.8858 41.946H37.005L35.4431 43.5079L36.4652 44.5301C36.5595 44.6244 36.6363 44.7283 36.699 44.8387H45.3322C46.131 44.8387 46.7786 45.4864 46.7786 46.2851V57.8563C46.7786 58.6551 46.131 59.3027 45.3322 59.3027H23.7388L18.0558 64.9857C17.7846 65.2569 17.4166 65.4093 17.033 65.4093C16.6495 65.4093 16.2814 65.2569 16.0102 64.9857L14.988 63.9635L12.1572 66.7943C12.9966 67.1346 13.7683 67.6395 14.4139 68.2853C15.1507 69.022 16.1303 69.4282 17.1725 69.4282H38.7776C39.8197 69.4282 40.7992 69.0227 41.5361 68.2853C42.6229 67.1985 44.0628 66.5063 45.5905 66.3372L50.3294 65.8103L47.4688 31.4835L45.3321 33.6196L45.3322 40.4996Z" fill="#FF7F00"/>
<path id="Vector_5" d="M13.5115 33.2675V39.053H23.5336L26.2385 36.3482C26.8035 35.7838 27.7191 35.7838 28.2841 36.3482L29.3062 37.3704L33.409 33.2676L13.5115 33.2675Z" fill="#FF7F00"/>
<path id="Vector_6" d="M28.2763 40.4317L27.2606 39.416L25.215 41.4616L31.3512 47.5978L33.3968 45.5522L32.3817 44.5372C32.3791 44.5346 32.3766 44.5326 32.3746 44.5307L28.2827 40.4388C28.2808 40.4369 28.2789 40.4343 28.2763 40.4317Z" fill="#FF7F00"/>
<path id="Vector_7" d="M16.0026 60.8862C16.0052 60.8888 16.009 60.8913 16.0116 60.8946C16.0142 60.8972 16.0168 60.901 16.02 60.9036L17.0338 61.9174L21.125 57.8261L14.9888 51.6899L10.8976 55.7812L16.0026 60.8862Z" fill="#FF7F00"/>
<path id="Vector_8" d="M33.3972 41.4616L47.1245 27.7344C46.9153 26.7342 46.3219 25.8521 45.4882 25.2793L31.3516 39.416L33.3972 41.4616Z" fill="#FF7F00"/>
<path id="Vector_9" d="M55.0404 68.2736C54.9978 68.2277 54.9435 68.2077 54.8828 68.2155L45.9101 69.2124C45.0325 69.3099 44.206 69.707 43.5823 70.3314C42.2986 71.6138 40.5926 72.3209 38.7776 72.3209H17.1725C15.3575 72.3209 13.6514 71.6138 12.3685 70.3308C11.7448 69.7064 10.9176 69.3093 10.0407 69.2118L1.06793 68.2148C1.06018 68.2141 1.05178 68.2135 1.04404 68.2135C0.992379 68.2135 0.947178 68.2335 0.910374 68.2736C0.867757 68.3194 0.851613 68.3736 0.862591 68.4356L2.68737 78.4726C2.9534 79.9371 4.22675 80.9999 5.71505 80.9999H50.2343C51.7227 80.9999 52.9961 79.9371 53.262 78.4726L55.0868 68.4356C55.0984 68.3736 55.0823 68.3194 55.0397 68.2736L55.0404 68.2736Z" fill="#FF7F00"/>
<path id="Vector_10" d="M7.82835 56.8033C7.55716 56.5322 7.40477 56.1641 7.40477 55.7805C7.40477 55.397 7.55715 55.0289 7.82835 54.7577L9.17208 53.414V46.2847C9.17208 45.4859 9.81974 44.8383 10.6185 44.8383H19.7928L22.1464 42.4847C21.9888 42.3271 21.8771 42.1425 21.8074 41.9455H12.0647C11.266 41.9455 10.6183 41.2979 10.6183 40.4991V31.8207C10.6183 31.022 11.266 30.3743 12.0647 30.3743H36.3014L42.087 24.5887H12.6863C10.6504 24.5887 8.92367 26.1772 8.75456 28.2061L6.05286 60.6236L8.85143 57.8256L7.82835 56.8033Z" fill="#FF7F00"/>
<path id="Vector_11" d="M12.9428 61.9178L10.8979 59.8728L5.68176 65.0876L5.6217 65.8102L8.70757 66.153L12.9428 61.9178Z" fill="#FF7F00"/>
<path id="Vector_12" d="M15.9761 13.2229C16.0956 13.9422 16.7116 14.4639 17.4413 14.4639H38.5091C39.2381 14.4639 39.8541 13.9422 39.9742 13.2229L41.8901 1.72923C41.963 1.29144 41.8455 0.863971 41.5582 0.524968C41.2708 0.18661 40.8679 0 40.4243 0H15.5248C15.0811 0 14.6782 0.18661 14.3915 0.524968C14.1048 0.863326 13.9867 1.29143 14.0596 1.72923L15.9761 13.2229Z" fill="#FF7F00"/>
<path id="Vector_13" d="M22.1898 17.3572H33.761V21.6964H22.1898V17.3572Z" fill="#FF7F00"/>
</g>
<g id="Group 579">
<path id="Vector_14" d="M75.6893 47.7314H70.1155V50.5216L72.0158 48.6213C72.5808 48.0569 73.4964 48.0569 74.0614 48.6213L81.85 56.4098H101.936V47.7314H93.3602L90.4247 50.6669C90.1426 50.9491 89.7719 51.0905 89.4019 51.0905C89.0319 51.0905 88.6619 50.9491 88.3791 50.6669L84.2885 54.7575C84.0064 55.0396 83.6357 55.1811 83.2657 55.1811C82.8957 55.1811 82.5251 55.0396 82.2429 54.7575L76.1067 48.6213C75.8575 48.3727 75.7186 48.0563 75.6889 47.7315L75.6893 47.7314Z" fill="#FF7F00"/>
<path id="Vector_15" d="M97.9474 39.053H100.489V36.5115L97.9474 39.053Z" fill="#FF7F00"/>
<path id="Vector_16" d="M79.174 47.5992L82.2423 44.5309L86.3335 48.6221L83.2652 51.6905L79.174 47.5992Z" fill="#FF7F00"/>
<path id="Vector_17" d="M103.383 40.4996C103.383 41.2983 102.735 41.946 101.936 41.946H95.0555L93.4935 43.5079L94.5156 44.5301C94.6099 44.6244 94.6868 44.7283 94.7494 44.8387H103.383C104.181 44.8387 104.829 45.4864 104.829 46.2851V57.8563C104.829 58.6551 104.181 59.3027 103.383 59.3027H81.7892L76.1062 64.9857C75.835 65.2569 75.467 65.4093 75.0834 65.4093C74.6999 65.4093 74.3318 65.2569 74.0606 64.9857L73.0384 63.9635L70.2076 66.7943C71.0471 67.1346 71.8187 67.6395 72.4644 68.2853C73.2011 69.022 74.1807 69.4282 75.2229 69.4282H96.828C97.8702 69.4282 98.8496 69.0227 99.5865 68.2853C100.673 67.1985 102.113 66.5063 103.641 66.3372L108.38 65.8103L105.519 31.4835L103.383 33.6196L103.383 40.4996Z" fill="#FF7F00"/>
<path id="Vector_18" d="M71.5618 33.2675V39.053H81.5839L84.2887 36.3482C84.8537 35.7838 85.7694 35.7838 86.3344 36.3482L87.3565 37.3704L91.4593 33.2676L71.5618 33.2675Z" fill="#FF7F00"/>
<path id="Vector_19" d="M86.3266 40.4317L85.3109 39.416L83.2653 41.4616L89.4015 47.5978L91.4471 45.5522L90.432 44.5372C90.4294 44.5346 90.4269 44.5326 90.4249 44.5307L86.333 40.4388C86.3311 40.4369 86.3292 40.4343 86.3266 40.4317Z" fill="#FF7F00"/>
<path id="Vector_20" d="M74.0529 60.8862C74.0555 60.8888 74.0593 60.8913 74.0619 60.8946C74.0645 60.8972 74.0671 60.901 74.0703 60.9036L75.0841 61.9174L79.1753 57.8261L73.0391 51.6899L68.9479 55.7812L74.0529 60.8862Z" fill="#FF7F00"/>
<path id="Vector_21" d="M91.4475 41.4616L105.175 27.7344C104.966 26.7342 104.372 25.8521 103.539 25.2793L89.4019 39.416L91.4475 41.4616Z" fill="#FF7F00"/>
<path id="Vector_22" d="M113.091 68.2736C113.048 68.2277 112.994 68.2077 112.933 68.2155L103.96 69.2124C103.083 69.3099 102.256 69.707 101.633 70.3314C100.349 71.6138 98.6429 72.3209 96.8279 72.3209H75.2228C73.4078 72.3209 71.7017 71.6138 70.4188 70.3308C69.795 69.7064 68.9679 69.3093 68.091 69.2118L59.1182 68.2148C59.1105 68.2141 59.1021 68.2135 59.0943 68.2135C59.0427 68.2135 58.9975 68.2335 58.9607 68.2736C58.918 68.3194 58.9019 68.3736 58.9129 68.4356L60.7377 78.4726C61.0037 79.9371 62.277 80.9999 63.7653 80.9999H108.285C109.773 80.9999 111.046 79.9371 111.312 78.4726L113.137 68.4356C113.149 68.3736 113.133 68.3194 113.09 68.2736L113.091 68.2736Z" fill="#FF7F00"/>
<path id="Vector_23" d="M65.8786 56.8033C65.6075 56.5322 65.4551 56.1641 65.4551 55.7805C65.4551 55.397 65.6074 55.0289 65.8786 54.7577L67.2224 53.414V46.2847C67.2224 45.4859 67.87 44.8383 68.6688 44.8383H77.8431L80.1966 42.4847C80.0391 42.3271 79.9274 42.1425 79.8576 41.9455H70.115C69.3163 41.9455 68.6686 41.2979 68.6686 40.4991V31.8207C68.6686 31.022 69.3163 30.3743 70.115 30.3743H94.3517L100.137 24.5887H70.7366C68.7007 24.5887 66.974 26.1772 66.8049 28.2061L64.1031 60.6236L66.9017 57.8256L65.8786 56.8033Z" fill="#FF7F00"/>
<path id="Vector_24" d="M70.9931 61.9178L68.9482 59.8728L63.732 65.0876L63.672 65.8102L66.7579 66.153L70.9931 61.9178Z" fill="#FF7F00"/>
<path id="Vector_25" d="M74.0264 13.2229C74.1459 13.9422 74.7619 14.4639 75.4915 14.4639H96.5594C97.2884 14.4639 97.9044 13.9422 98.0245 13.2229L99.9403 1.72923C100.013 1.29144 99.8958 0.863971 99.6085 0.524968C99.3211 0.18661 98.9182 0 98.4746 0H73.575C73.1314 0 72.7285 0.18661 72.4418 0.524968C72.1551 0.863326 72.037 1.29143 72.1099 1.72923L74.0264 13.2229Z" fill="#FF7F00"/>
<path id="Vector_26" d="M80.2401 17.3572H91.8113V21.6964H80.2401V17.3572Z" fill="#FF7F00"/>
</g>
</g>
</svg>
