<svg xmlns="http://www.w3.org/2000/svg" width="101" height="87" viewBox="0 0 101 87" fill="none">
<path d="M27.4792 54.1249C27.4792 56.4729 28.4121 58.725 30.0721 60.3861C31.7331 62.0463 33.9854 62.979 36.3334 62.979C38.6814 62.979 40.9335 62.0462 42.5946 60.3861C44.2548 58.7252 45.1875 56.4729 45.1875 54.1249C45.1875 51.7769 44.2547 49.5248 42.5946 47.8636C40.9337 46.2035 38.6814 45.2708 36.3334 45.2708C33.9854 45.2708 31.7333 46.2036 30.0721 47.8636C28.412 49.5246 27.4792 51.7769 27.4792 54.1249ZM36.3334 47.0416C38.2117 47.0416 40.0135 47.7879 41.3423 49.116C42.6704 50.4449 43.4167 52.2466 43.4167 54.1249C43.4167 56.0032 42.6704 57.805 41.3423 59.1338C40.0134 60.4619 38.2117 61.2082 36.3334 61.2082C34.4551 61.2082 32.6533 60.4619 31.3245 59.1338C29.9964 57.8049 29.2501 56.0032 29.2501 54.1249C29.2501 52.2466 29.9964 50.4448 31.3245 49.116C32.6534 47.7879 34.4551 47.0416 36.3334 47.0416Z" fill="#3965d6" stroke="#3965d6" stroke-width="0.7"/>
<path d="M48.7292 54.1248C48.7308 57.46 47.3829 60.654 44.993 62.9789H65.6581C65.0146 61.9093 64.6715 60.6855 64.6667 59.4373C64.6667 57.5589 65.413 55.7572 66.7411 54.4283C68.07 53.1002 69.8717 52.354 71.75 52.354C72.4046 52.3634 73.0544 52.4646 73.6806 52.6552L71.2726 42.2429H71.2718C69.6125 44.16 67.203 45.2644 64.6668 45.2707C62.3188 45.2707 60.0667 44.3379 58.4055 42.6778C56.7454 41.0169 55.8126 38.7646 55.8126 36.4166C55.8292 36.0901 55.8648 35.7652 55.9186 35.4426L40.8309 42.5972H40.8317C43.1544 43.5016 45.1505 45.085 46.5593 47.142C47.9688 49.1982 48.7245 51.6324 48.7294 54.1249L48.7292 54.1248Z" fill="#3965d6" stroke="#3965d6" stroke-width="0.7"/>
<path d="M64.6666 41.729C66.0754 41.729 67.4273 41.1693 68.4232 40.1732C69.4191 39.1771 69.979 37.8252 69.979 36.4166C69.979 35.0081 69.4193 33.656 68.4232 32.66C67.4271 31.6641 66.0752 31.1042 64.6666 31.1042C63.2581 31.1042 61.906 31.664 60.91 32.66C59.9141 33.6561 59.3542 35.0081 59.3542 36.4166C59.3582 37.8246 59.9195 39.1732 60.9148 40.1685C61.9101 41.1639 63.2587 41.7251 64.6666 41.729ZM64.6666 32.8749C65.6058 32.8749 66.507 33.248 67.1711 33.9121C67.8351 34.5761 68.2083 35.4774 68.2083 36.4165C68.2083 37.3557 67.8351 38.2569 67.1711 38.921C66.507 39.585 65.6058 39.9582 64.6666 39.9582C63.7275 39.9582 62.8262 39.585 62.1622 38.921C61.4981 38.2569 61.125 37.3557 61.125 36.4165C61.125 35.4774 61.4981 34.5761 62.1622 33.9121C62.8262 33.248 63.7275 32.8749 64.6666 32.8749Z" fill="#3965d6" stroke="#3965d6" stroke-width="0.7"/>
<path d="M39.8751 54.1248C39.8751 56.0806 38.2892 57.6664 36.3334 57.6664C34.3776 57.6664 32.7917 56.0806 32.7917 54.1248C32.7917 52.169 34.3776 50.5831 36.3334 50.5831C38.2892 50.5831 39.8751 52.169 39.8751 54.1248Z" fill="#3965d6" stroke="#3965d6" stroke-width="0.7"/>
<path d="M0.91687 39.5333L2.49323 42.7034C2.61893 42.95 2.68612 43.2228 2.6877 43.5002V57.6669C2.68612 57.9443 2.61893 58.2171 2.49323 58.4637L0.91687 61.6338V71.8334H8.00017V61.6338L6.42382 58.4637C6.29812 58.2171 6.23092 57.9443 6.22934 57.6669V43.5002C6.23092 43.2228 6.29812 42.95 6.42382 42.7034L8.00017 39.5333V29.3337H0.91687V39.5333Z" fill="#3965d6" stroke="#3965d6" stroke-width="0.7"/>
<path d="M61.1249 11.625H64.6666V16.9375H61.1249V11.625Z" fill="#3965d6" stroke="#3965d6" stroke-width="0.7"/>
<path d="M9.771 48.8123H15.0835V52.3539H9.771V48.8123Z" fill="#3965d6" stroke="#3965d6" stroke-width="0.7"/>
<path d="M87.6874 47.0414H91.229V54.1247H87.6874V47.0414Z" fill="#3965d6" stroke="#3965d6" stroke-width="0.7"/>
<path d="M94.7707 34.6456H100.083V66.5205H94.7707V34.6456Z" fill="#3965d6" stroke="#3965d6" stroke-width="0.7"/>
<path d="M33.9251 28.9264C33.6065 29.1904 33.2049 29.3343 32.7914 29.3335H18.6248V73.6041H41.6456V77.1458H32.2958L37.36 85.9999H77.8056L84.145 74.8967V20.4788H44.0535L33.9251 28.9264ZM52.2704 77.1454H45.1871V73.6038H52.2704V77.1454ZM64.6662 27.5623C66.9485 27.5694 69.1392 28.458 70.7827 30.0415C72.4255 31.6249 73.3939 33.7823 73.4849 36.0623L78.2131 56.5857C78.6179 57.4814 78.8298 58.4529 78.8329 59.4364C78.8329 61.3147 78.0867 63.1165 76.7585 64.4453C75.4296 65.7734 73.6279 66.5197 71.7496 66.5197H36.3331C32.1977 66.5236 28.332 64.4651 26.0275 61.0309C23.723 57.5967 23.2828 53.2401 24.8543 49.4147C26.4251 45.5893 29.8007 42.7993 33.854 41.9764L58.1679 30.4661C59.8257 28.6217 62.187 27.5664 64.6669 27.5615L64.6662 27.5623Z" fill="#3965d6" stroke="#3965d6" stroke-width="0.7"/>
<path d="M82.64 1H46.6932L45.5066 8.0833H83.8273L82.64 1Z" fill="#3965d6" stroke="#3965d6" stroke-width="0.7"/>
<path d="M75.2916 59.4373C75.2916 61.3931 73.7057 62.9789 71.7499 62.9789C69.7941 62.9789 68.2083 61.3931 68.2083 59.4373C68.2083 57.4815 69.7941 55.8956 71.7499 55.8956C73.7057 55.8956 75.2916 57.4815 75.2916 59.4373Z" fill="#3965d6" stroke="#3965d6" stroke-width="0.7"/>
</svg>