<svg xmlns="http://www.w3.org/2000/svg" width="117" height="87" viewBox="0 0 117 87" fill="none">
<g id="Group 570">
<g id="Group 571">
<path id="Vector" d="M91.6565 36.0123V36.0322H91.4065C90.484 36.0322 89.75 35.2512 89.75 34.3153C89.75 34.036 89.7991 33.7929 89.8964 33.569L89.8965 33.5687L103.759 1.76063C103.759 1.7606 103.759 1.76057 103.76 1.76055C104.025 1.15091 104.614 0.75 105.268 0.75C106.19 0.75 106.924 1.53097 106.924 2.46694C106.924 2.74624 106.875 2.98929 106.778 3.21323L106.778 3.21351L92.9147 35.0228L92.9146 35.023C92.6835 35.5525 92.2072 35.9248 91.6565 36.0123Z" fill="#ff7f00" stroke="#ff7f00" stroke-width="0.5"/>
</g>
<g id="Group 572">
<path id="Vector_2" d="M64.2761 37.8522V38.1022H64.0261H52.2087H51.9587V37.8522V29.974C51.9587 27.9394 50.3042 26.2848 48.2696 26.2848H35.6995H35.2953L35.4759 25.9232L36.356 24.1602L36.3562 24.1599C37.0703 22.7345 38.5082 21.8457 40.1037 21.8457H60.0868C62.3975 21.8457 64.2761 23.7241 64.2761 26.0348V37.8522Z" fill="#ff7f00" stroke="#ff7f00" stroke-width="0.5"/>
<path id="Vector_3" d="M32.2892 32.2976L32.7628 32.4094V37.8531V38.1031H32.5128H29.7905H29.386L29.5669 37.7413L32.2892 32.2976Z" fill="#ff7f00" stroke="#ff7f00" stroke-width="0.5"/>
<path id="Vector_4" d="M40.3912 29.7239H40.6412V29.9739V37.8521V38.1021H40.3912H36.4521H36.2021V37.8521V29.9739V29.7239H36.4521H40.3912Z" fill="#ff7f00" stroke="#ff7f00" stroke-width="0.5"/>
<path id="Vector_5" d="M48.2695 29.7239H48.5195V29.9739V37.8521V38.1021H48.2695H44.3304H44.0804V37.8521V29.9739V29.7239H44.3304H48.2695Z" fill="#ff7f00" stroke="#ff7f00" stroke-width="0.5"/>
<path id="Vector_6" d="M12.8174 61.2368C19.4726 61.2368 24.8848 66.649 24.8848 73.3042C24.8848 79.9594 19.4726 85.3716 12.8174 85.3716C6.1622 85.3716 0.750011 79.9594 0.750011 73.3042C0.750011 66.649 6.1622 61.2368 12.8174 61.2368ZM12.8174 80.9324C17.0238 80.9324 20.4456 77.5106 20.4456 73.3042C20.4456 69.0977 17.0238 65.6759 12.8174 65.6759C8.61094 65.6759 5.18914 69.0977 5.18914 73.3042C5.18914 77.5106 8.61094 80.9324 12.8174 80.9324Z" fill="#ff7f00" stroke="#ff7f00" stroke-width="0.5"/>
<path id="Vector_7" d="M70.8304 71.5925L70.8619 71.8706H70.582H28.1805H27.9635L27.933 71.6557C27.7306 70.2292 27.3278 68.859 26.7363 67.5708L26.5736 67.2164H26.9635H70.5818H70.8617L70.8302 67.4945C70.7539 68.1691 70.7129 68.8515 70.7129 69.5435C70.7129 70.2355 70.7541 70.9178 70.8304 71.5925Z" fill="#ff7f00" stroke="#ff7f00" stroke-width="0.5"/>
<path id="Vector_8" d="M64.3227 63.3122V53.6489H60.501V63.3122V63.5622H60.251H55.9292H55.6792V63.3122V53.6489H51.8574V63.3122V63.5622H51.6074H47.2857H47.0357V63.3122V53.6489H43.2139V63.3122V63.5622H42.9639H38.6422H38.3922V63.3122V53.6489H34.5704V63.3122V63.5622H34.3204H26.1844H26.0709L25.9962 63.4768C23.4432 60.5592 19.7692 58.5088 15.5745 57.8543L15.1271 58.0534L15.3019 57.5186L19.639 44.2506L19.639 44.2505C20.2289 42.4481 21.9972 41.2529 24.0171 41.2529H75.5893C77.3405 41.2529 78.9648 42.1902 79.7223 43.6604L79.7225 43.6607L83.2668 50.562L83.3992 50.8198L83.1248 50.9129C76.9505 53.0076 72.1124 57.6216 70.1294 63.3934L70.0714 63.5622H69.8929H64.5727H64.3227V63.3122Z" fill="#ff7f00" stroke="#ff7f00" stroke-width="0.5"/>
<path id="Vector_9" d="M12.8172 77.4936C10.5038 77.4936 8.6281 75.6179 8.6281 73.3045C8.6281 70.9911 10.5038 69.1154 12.8172 69.1154C15.1306 69.1154 17.0063 70.9911 17.0063 73.3045C17.0063 75.6179 15.1306 77.4936 12.8172 77.4936Z" fill="#ff7f00" stroke="#ff7f00" stroke-width="0.5"/>
<path id="Vector_10" d="M90.3142 52.6769C99.6147 52.6769 107.181 60.243 107.181 69.5435C107.181 78.8439 99.6147 86.4101 90.3142 86.4101C81.0137 86.4101 73.4476 78.8439 73.4476 69.5435C73.4476 60.243 81.0137 52.6769 90.3142 52.6769ZM90.3142 81.7559C97.049 81.7559 102.527 76.2783 102.527 69.5435C102.527 67.2317 101.871 64.9832 100.631 63.0222L97.5825 65.0415C98.4277 66.3997 98.8724 67.9504 98.8724 69.5435C98.8724 74.2632 95.0339 78.1018 90.3141 78.1018C88.7213 78.1018 87.1707 77.6572 85.8148 76.812L83.7956 79.8601C85.754 81.1 88.0024 81.7559 90.3142 81.7559ZM78.1017 69.5434C78.1017 71.8552 78.7576 74.1037 79.9977 76.0647L83.0458 74.0455C82.2006 72.6872 81.7559 71.1366 81.7559 69.5435C81.7559 64.8237 85.5944 60.9852 90.3142 60.9852C91.907 60.9852 93.4575 61.4298 94.8135 62.2749L96.8327 59.2269C94.8743 57.987 92.6259 57.331 90.3142 57.331C83.5794 57.331 78.1017 62.8086 78.1017 69.5434Z" fill="#ff7f00" stroke="#ff7f00" stroke-width="0.5"/>
<path id="Vector_11" d="M86.7862 50.0487L86.96 50.0254C87.9777 49.8891 89.0034 49.7936 90.0524 49.7881L90.0526 49.7882H90.1494C99.7843 49.7882 107.939 55.5315 110.683 63.3948L110.741 63.5624H110.919H114.1C115.415 63.5624 116.528 62.5917 116.528 61.3447V27.893C116.528 26.646 115.415 25.6753 114.1 25.6753H103.823H103.669L103.6 25.8129L97.675 37.5922L97.6749 37.5924C96.5133 39.907 93.9365 41.4172 91.094 41.4172C87.0864 41.4172 83.8671 38.4769 83.8671 34.8327C83.8671 33.9147 84.0881 32.987 84.511 32.1492L84.5112 32.1489L87.5856 26.0374L87.7679 25.675H87.3623H80.1031C79.112 25.675 78.1948 26.2392 77.8368 27.1065L86.7862 50.0487ZM86.7862 50.0487L86.7051 49.8933L82.7752 42.3605L82.7751 42.3603C81.3956 39.7091 78.3928 37.9814 75.1216 37.9814H73.6976H73.3231L73.4667 37.6356L77.8366 27.107L86.7862 50.0487Z" fill="#ff7f00" stroke="#ff7f00" stroke-width="0.5"/>
</g>
</g>
</svg>