<svg width="81" height="85" viewBox="0 0 81 85" fill="none" xmlns="http://www.w3.org/2000/svg">
<g id="Group 560">
<path id="Vector" d="M38.2429 49.4155L39.0757 47.9697L38.2429 46.5239H36.5732L35.7404 47.9697L36.5732 49.4155H38.2429Z" fill="#3965D6"/>
<path id="Vector_2" d="M80.6211 43.6496C80.6053 40.9124 80.3043 38.1839 79.7229 35.5093C77.496 37.0646 74.6981 37.564 72.0704 36.8745C69.4434 36.1843 67.2509 34.3755 66.0758 31.9268C64.9 29.4773 64.8594 26.6354 65.9642 24.1544C67.0697 21.6726 69.2091 19.8017 71.8156 19.0372C70.9629 17.9833 70.0571 16.9742 69.1017 16.0127C68.0809 18.5364 66.0007 20.4831 63.4149 21.3344C60.8292 22.1858 58.0003 21.8558 55.6797 20.4328C53.3592 19.009 51.7824 16.6368 51.3692 13.9463C50.9566 11.2551 51.7487 8.51933 53.5348 6.46522C51.1488 5.69789 48.6932 5.16682 46.2032 4.87891L42.2473 16.747L68.812 46.2723L80.6211 43.6496ZM48.2093 17.1114H45.1234C44.2714 17.1114 43.5805 16.4205 43.5805 15.5685C43.5805 14.7164 44.2714 14.0255 45.1234 14.0255H48.2093C49.0613 14.0255 49.7522 14.7164 49.7522 15.5685C49.7522 16.4205 49.0613 17.1114 48.2093 17.1114ZM68.2672 43.341V40.2552C68.2672 39.4031 68.9581 38.7122 69.8101 38.7122C70.6622 38.7122 71.353 39.4031 71.353 40.2552V43.341C71.353 44.193 70.6622 44.8839 69.8101 44.8839C68.9581 44.8839 68.2672 44.193 68.2672 43.341Z" fill="#3965D6"/>
<path id="Vector_3" d="M38.9517 58.7698C38.9517 59.6219 38.2609 60.3128 37.4088 60.3128C36.5568 60.3128 35.8659 59.6219 35.8659 58.7698C35.8659 57.9178 36.5568 57.2269 37.4088 57.2269C38.2609 57.2269 38.9517 57.9178 38.9517 58.7698Z" fill="#3965D6"/>
<path id="Vector_4" d="M28.1513 47.9696C28.1513 48.8216 27.4605 49.5125 26.6084 49.5125C25.7564 49.5125 25.0655 48.8216 25.0655 47.9696C25.0655 47.1175 25.7564 46.4266 26.6084 46.4266C27.4605 46.4266 28.1513 47.1175 28.1513 47.9696Z" fill="#3965D6"/>
<path id="Vector_5" d="M38.9517 37.1691C38.9517 38.0212 38.2609 38.7121 37.4088 38.7121C36.5568 38.7121 35.8659 38.0212 35.8659 37.1691C35.8659 36.3171 36.5568 35.6262 37.4088 35.6262C38.2609 35.6262 38.9517 36.3171 38.9517 37.1691Z" fill="#3965D6"/>
<path id="Vector_6" d="M23.3551 2.95977L33.4701 8.01561C33.4853 8.01561 33.4949 8.03903 33.5087 8.0466C34.7864 7.92193 36.093 7.85373 37.4093 7.85373C38.3971 7.85373 39.3855 7.90332 40.3719 7.97427L24.7574 0.165338C23.986 -0.220392 23.0471 0.0916355 22.6613 0.863777C22.2756 1.63524 22.5876 2.57338 23.3598 2.95986L23.3551 2.95977Z" fill="#3965D6"/>
<path id="Vector_7" d="M49.7522 47.9696C49.7522 48.8216 49.0613 49.5125 48.2093 49.5125C47.3572 49.5125 46.6664 48.8216 46.6664 47.9696C46.6664 47.1175 47.3572 46.4266 48.2093 46.4266C49.0613 46.4266 49.7522 47.1175 49.7522 47.9696Z" fill="#3965D6"/>
<path id="Vector_8" d="M68.2672 27.9118C68.2672 29.5484 68.9174 31.1183 70.0746 32.2761C71.2325 33.4332 72.8023 34.0835 74.4389 34.0835C76.0754 34.0835 77.6453 33.4332 78.8031 32.2761C79.9603 31.1182 80.6106 29.5484 80.6106 27.9118C80.6106 26.2753 79.9603 24.7054 78.8031 23.5475C77.6453 22.3904 76.0754 21.7401 74.4389 21.7401C72.8023 21.7401 71.2324 22.3904 70.0746 23.5475C68.9174 24.7054 68.2672 26.2753 68.2672 27.9118Z" fill="#3965D6"/>
<path id="Vector_9" d="M68.2672 49.5127C67.8298 49.5127 67.4131 49.3267 67.121 49.0023L66.7463 48.5869L61.6436 53.6897C61.0381 54.2744 60.0759 54.2655 59.4807 53.6704C58.8855 53.0752 58.8766 52.113 59.4614 51.5075L64.6798 46.289L39.3477 18.1444C38.9758 17.7319 38.8545 17.1512 39.0295 16.6243L40.8658 11.116C39.7224 11.0099 38.5626 10.9403 37.4081 10.9403C27.5996 10.9403 18.1913 14.832 11.249 21.7621C4.3066 28.6915 0.397634 38.0921 0.378942 47.9C0.360344 57.7086 4.23483 67.1239 11.1512 74.0802C18.0675 81.035 27.4606 84.9627 37.2697 84.9999C47.0782 85.0364 56.5006 81.1805 63.4693 74.2772C70.438 67.3741 74.3828 57.9884 74.4385 48.1798L68.6065 49.4762V49.4755C68.4949 49.5003 68.3812 49.5127 68.2669 49.5127L68.2672 49.5127ZM31.6886 14.477C32.2913 13.8749 33.268 13.8749 33.8707 14.477L43.1282 23.7345C43.4258 24.0224 43.5952 24.4171 43.5987 24.831C43.6028 25.245 43.4396 25.6432 43.1468 25.9352C42.8548 26.2279 42.4566 26.3912 42.0427 26.3871C41.6287 26.3836 41.234 26.2142 40.9461 25.9166L31.6886 16.6591C31.0866 16.0564 31.0866 15.0797 31.6886 14.477ZM11.2233 26.7879H24.3168C25.1688 26.7879 25.8597 27.4787 25.8597 28.3308C25.8597 29.1828 25.1688 29.8737 24.3168 29.8737H11.2233C10.3713 29.8737 9.68038 29.1828 9.68038 28.3308C9.68038 27.4787 10.3713 26.7879 11.2233 26.7879ZM15.3555 44.43L6.09799 53.6875V53.6882C5.49253 54.273 4.53027 54.2641 3.93508 53.6689C3.33988 53.0738 3.33099 52.1116 3.91579 51.506L13.1733 42.2485C13.7788 41.6637 14.741 41.6727 15.3362 42.2678C15.9314 42.8629 15.9403 43.8252 15.3555 44.4307V44.43ZM19.3133 74.1528L19.3126 74.1535C19.3126 75.0055 18.6217 75.6964 17.7697 75.6964C16.9177 75.6964 16.2268 75.0055 16.2268 74.1535V61.06C16.2268 60.208 16.9177 59.5171 17.7697 59.5171C18.6217 59.5171 19.3126 60.208 19.3126 61.06L19.3133 74.1528ZM17.3502 47.969C17.3502 42.6494 19.4634 37.5474 23.2249 33.7858C26.9865 30.0243 32.0885 27.9111 37.4081 27.9111C42.7278 27.9111 47.8298 30.0243 51.5913 33.7858C55.3529 37.5474 57.4661 42.6494 57.4661 47.969C57.4661 53.2887 55.3529 58.3907 51.5913 62.1523C47.8298 65.9138 42.7278 68.027 37.4081 68.027C32.0906 68.0208 26.9921 65.9055 23.2318 62.1454C19.4715 58.3852 17.3564 53.2867 17.3502 47.969ZM43.1284 81.4618C42.5257 82.0639 41.549 82.0639 40.9463 81.4618L31.6887 72.2043C31.104 71.5989 31.1129 70.6366 31.708 70.0414C32.3032 69.4462 33.2654 69.4373 33.8709 70.0221L43.1285 79.2796C43.7305 79.8824 43.7304 80.8591 43.1284 81.4618ZM63.5937 69.1509H50.5002C49.6481 69.1509 48.9573 68.4601 48.9573 67.608C48.9573 66.756 49.6481 66.0651 50.5002 66.0651H63.5937C64.4457 66.0651 65.1366 66.756 65.1366 67.608C65.1366 68.4601 64.4457 69.1509 63.5937 69.1509Z" fill="#3965D6"/>
<path id="Vector_10" d="M66.7243 12.4826C66.7243 15.8908 63.9608 18.6543 60.5526 18.6543C57.1444 18.6543 54.3809 15.8908 54.3809 12.4826C54.3809 9.07441 57.1444 6.31091 60.5526 6.31091C63.9608 6.31091 66.7243 9.07441 66.7243 12.4826Z" fill="#3965D6"/>
<path id="Vector_11" d="M54.3809 47.9697C54.3809 43.4684 52.5927 39.1516 49.4099 35.9686C46.2269 32.7856 41.9103 30.9976 37.4088 30.9976C32.9074 30.9976 28.5907 32.7858 25.4077 35.9686C22.2247 39.1516 20.4367 43.4682 20.4367 47.9697C20.4367 52.4711 22.2249 56.7878 25.4077 59.9708C28.5907 63.1537 32.9074 64.9418 37.4088 64.9418C41.9088 64.9363 46.222 63.1467 49.4043 59.9651C52.5858 56.7828 54.3753 52.4695 54.3809 47.9697ZM48.2092 43.3409C49.4367 43.3409 50.6146 43.8286 51.4824 44.6965C52.3501 45.5644 52.8379 46.7423 52.8379 47.9696C52.8379 49.1969 52.3502 50.3749 51.4824 51.2427C50.6145 52.1104 49.4365 52.5982 48.2092 52.5982C46.982 52.5982 45.8039 52.1106 44.9361 51.2427C44.0684 50.3748 43.5806 49.1969 43.5806 47.9696C43.5806 46.7423 44.0682 45.5642 44.9361 44.6965C45.804 43.8287 46.982 43.3409 48.2092 43.3409ZM37.4088 32.5405C38.6363 32.5405 39.8142 33.0281 40.6819 33.896C41.5497 34.7639 42.0375 35.9419 42.0375 37.1691C42.0375 38.3964 41.5498 39.5745 40.6819 40.4422C39.814 41.31 38.6361 41.7978 37.4088 41.7978C36.1815 41.7978 35.0034 41.3101 34.1357 40.4422C33.268 39.5744 32.7801 38.3964 32.7801 37.1691C32.7801 35.9419 33.2678 34.7638 34.1357 33.896C35.0036 33.0283 36.1815 32.5405 37.4088 32.5405ZM26.6084 52.5984C25.3809 52.5984 24.203 52.1108 23.3353 51.2429C22.4675 50.375 21.9797 49.197 21.9797 47.9698C21.9797 46.7425 22.4674 45.5644 23.3353 44.6967C24.2032 43.8289 25.3811 43.3411 26.6084 43.3411C27.8357 43.3411 29.0138 43.8288 29.8815 44.6967C30.7492 45.5645 31.2371 46.7425 31.2371 47.9698C31.2371 49.197 30.7494 50.3751 29.8815 51.2429C29.0136 52.1106 27.8357 52.5984 26.6084 52.5984ZM32.6258 47.1982L34.3505 44.2095C34.626 43.7322 35.1358 43.4381 35.6868 43.4381H39.1369C39.688 43.4381 40.1977 43.7322 40.4732 44.2095L42.1918 47.1982C42.4673 47.6755 42.4673 48.2638 42.1918 48.7411L40.467 51.7298C40.1915 52.2071 39.6818 52.5013 39.1307 52.5013H35.684C35.1322 52.5013 34.6232 52.2071 34.3477 51.7298L32.6257 48.7411C32.3502 48.2638 32.3502 47.6755 32.6258 47.1982ZM32.7801 58.7701C32.7801 57.5427 33.2677 56.3647 34.1356 55.497C35.0035 54.6293 36.1814 54.1414 37.4087 54.1414C38.636 54.1414 39.8141 54.6291 40.6818 55.497C41.5496 56.3649 42.0374 57.5428 42.0374 58.7701C42.0374 59.9974 41.5497 61.1755 40.6818 62.0432C39.8139 62.9109 38.636 63.3988 37.4087 63.3988C36.1814 63.3988 35.0034 62.9111 34.1356 62.0432C33.2679 61.1753 32.7801 59.9974 32.7801 58.7701Z" fill="#3965D6"/>
</g>
</svg>
