<svg width="87" height="84" viewBox="0 0 87 84" fill="none" xmlns="http://www.w3.org/2000/svg">
<path d="M58.4164 7.60169C58.4164 7.62557 58.4287 7.65001 58.4287 7.6739C58.4287 8.0361 58.2588 8.3494 58.0157 8.5666C57.5664 9.38708 57.2026 10.2559 56.9595 11.1852C56.8505 11.5958 56.5347 11.9335 56.1218 12.0541L54.0098 12.6573L53.9975 15.1671L56.1218 15.7826C56.5348 15.9031 56.85 16.2292 56.9595 16.6514C57.2389 17.7496 57.676 18.7874 58.246 19.7406C58.4645 20.1145 58.4768 20.5733 58.27 20.9472L57.2021 22.8659L58.9742 24.6396C59.0106 24.6158 59.0469 24.6035 59.0955 24.5791L60.9285 23.5897C61.1107 23.4931 61.3169 23.4448 61.5114 23.4448C61.7299 23.4448 61.9484 23.5053 62.1429 23.6136C63.1019 24.193 64.1458 24.6152 65.2507 24.8924C65.6637 25.0007 66.0035 25.3146 66.1125 25.7251L66.7194 27.8244L69.2443 27.8367L69.8635 25.7251C69.9848 25.3146 70.3128 25.0013 70.7375 24.8924C71.8424 24.6147 72.8864 24.1803 73.8454 23.6136C74.2098 23.3842 74.6831 23.3842 75.0592 23.5897L76.9895 24.6513L78.774 22.8898L77.706 20.9594C77.4998 20.5855 77.4998 20.1267 77.7301 19.7528C78.3129 18.7996 78.7377 17.7619 79.0166 16.6636C79.1255 16.2414 79.4413 15.9153 79.8543 15.7948L81.9786 15.1915L81.9908 12.6818L79.8543 12.0541C79.4413 11.9335 79.1138 11.6074 79.0165 11.1852C78.7371 10.0753 78.3001 9.03759 77.7301 8.12048C77.4992 7.74663 77.4875 7.28777 77.706 6.9017L78.774 4.97134L77.0253 3.19756L75.071 4.25913C74.6826 4.47633 74.2215 4.46411 73.8448 4.23524C72.9222 3.66807 71.8782 3.23366 70.7616 2.95646C70.3486 2.84814 70.0088 2.53427 69.8875 2.12375L69.2806 0.0122213L66.7558 0L66.1248 2.12376C66.0035 2.53428 65.6755 2.84758 65.2507 2.95647C64.1459 3.23422 63.1019 3.66863 62.1429 4.23525C61.7668 4.45245 61.3051 4.46468 60.929 4.25914L58.9988 3.19757L57.202 4.95912L58.2699 6.88948C58.4041 7.11891 58.4405 7.3606 58.4164 7.60169ZM68.0064 6.33457C72.2185 6.33457 75.6421 9.73708 75.6421 13.9244C75.6421 18.1112 72.219 21.5143 68.0064 21.5143C63.7943 21.5143 60.3707 18.1118 60.3707 13.9244C60.3707 9.73765 63.7938 6.33457 68.0064 6.33457Z" fill="#FF7F00"/>
<path d="M67.9942 18.889C70.7559 18.889 72.993 16.6645 72.993 13.9182C72.993 11.172 70.7559 8.94739 67.9942 8.94739C65.2325 8.94739 62.9954 11.172 62.9954 13.9182C62.9949 16.6645 65.2325 18.889 67.9942 18.889ZM65.1391 12.8406C65.652 12.4581 66.3859 12.5738 66.7705 13.0838L67.1552 13.5938L69.4041 11.6589C69.8933 11.2417 70.6278 11.2999 71.0473 11.7747C71.4669 12.2612 71.4084 12.9915 70.9309 13.4087L67.7265 16.155C67.5168 16.3406 67.2373 16.4329 66.9691 16.4329C66.9224 16.4329 66.8757 16.4329 66.8408 16.4212C66.5147 16.3865 66.2234 16.2126 66.0367 15.9576L64.9063 14.4282C64.5098 13.9411 64.6144 13.2113 65.1391 12.8406Z" fill="#FF7F00"/>
<path d="M57.1169 38.139C58.1594 38.139 58.9963 37.3001 58.9963 36.2554V29.3379C58.5265 29.2058 58.0857 28.9849 57.7334 28.6312L55.5896 26.4825C54.6647 25.5556 54.4585 24.0981 55.0899 22.9503L55.9857 21.3316C55.4861 20.3748 55.0609 19.3741 54.7519 18.3441L52.9751 17.8291C51.7122 17.4612 50.8454 16.2984 50.8454 14.9887V11.9423C50.8454 10.6326 51.7263 9.46982 52.9751 9.10191L54.7377 8.58694C54.8696 8.16007 55.0311 7.73318 55.1927 7.32121H48.1292V14.4446C48.1292 15.3275 47.6444 16.1223 46.8514 16.52C46.0584 16.9171 45.1335 16.829 44.4283 16.2991L40.5072 13.3557L36.586 16.3141C36.1749 16.623 35.6902 16.785 35.1906 16.785C34.8383 16.785 34.4854 16.7111 34.1481 16.535C33.355 16.1379 32.8703 15.3431 32.8703 14.4595L32.8716 7.31982H23.8845C22.842 7.31982 22.0051 8.15867 22.0051 9.20344V36.2547C22.0051 37.2995 22.857 38.1383 23.8845 38.1383L57.1169 38.139ZM44.2817 30.7655C44.2817 30.3684 44.6049 30.0445 45.001 30.0445H53.8853C54.2815 30.0445 54.6046 30.3684 54.6046 30.7655V33.65C54.6046 34.047 54.2815 34.3709 53.8853 34.3709H45.001C44.6048 34.3709 44.2817 34.047 44.2817 33.65V30.7655Z" fill="#FF7F00"/>
<path d="M39.1608 10.7582C39.5555 10.4444 40.021 10.295 40.5007 10.295C40.9662 10.295 41.4453 10.4444 41.8407 10.7582L44.9997 13.2848L44.9984 7.31982H36.0018V13.2848L39.1608 10.7582Z" fill="#FF7F00"/>
<path d="M57.5746 40.8142V46.1812L60.6049 43.9079C61.3621 43.3431 62.4177 43.3431 63.1612 43.9079L66.1915 46.1812V40.8142H57.5746Z" fill="#FF7F00"/>
<path d="M23.8395 43.907C24.5967 43.3423 25.6523 43.3423 26.3958 43.907L29.4261 46.1803V40.8134H20.7961V46.1803L23.8395 43.907Z" fill="#FF7F00"/>
<path d="M68.9095 47.3247C68.9095 48.1316 68.463 48.858 67.7325 49.2215C67.002 49.5844 66.1501 49.5039 65.5006 49.0196L61.8888 46.3159L58.2769 49.0196C57.8983 49.302 57.4518 49.45 56.9916 49.45C56.6671 49.45 56.3421 49.3695 56.0313 49.2215C55.3009 48.8586 54.8544 48.1322 54.8544 47.3247V40.8146H46.5762C45.616 40.8146 44.8451 41.5812 44.8451 42.536V67.2586C44.8451 68.2135 45.6297 68.9801 46.5762 68.9801H77.1883C78.1486 68.9801 78.9195 68.2134 78.9195 67.2586V42.536C78.9195 41.5812 78.1348 40.8146 77.1883 40.8146H68.9102L68.9095 47.3247ZM74.8616 62.242V64.8781C74.8616 65.241 74.564 65.537 74.199 65.537H66.0156C65.6507 65.537 65.353 65.241 65.353 64.8781V62.242C65.353 61.8791 65.6507 61.5831 66.0156 61.5831H74.199C74.564 61.5825 74.8616 61.8785 74.8616 62.242Z" fill="#FF7F00"/>
<path d="M50.7163 71.6844H74.4287V83.8707H50.7163V71.6844Z" fill="#FF7F00"/>
<path d="M39.0164 71.6844H48.0119V83.8707H39.0164V71.6844Z" fill="#FF7F00"/>
<path d="M12.5987 71.6844H36.311V83.8707H12.5987V71.6844Z" fill="#FF7F00"/>
<path d="M40.4241 68.9941C41.3844 68.9941 42.1553 68.2275 42.1553 67.2726V42.5358C42.1553 41.5809 41.3706 40.8143 40.4241 40.8143H32.1454V47.3245C32.1454 48.1314 31.6988 48.8578 30.9684 49.2213C30.2379 49.5842 29.386 49.5036 28.7365 49.0194L25.1246 46.3157L21.5128 49.0194C21.1342 49.3018 20.6877 49.4498 20.2275 49.4498C19.903 49.4498 19.5779 49.3693 19.2672 49.2213C18.5367 48.8584 18.0902 48.132 18.0902 47.3245V40.8143H9.82646C8.8662 40.8143 8.09531 41.581 8.09531 42.5358V67.2584C8.09531 68.2132 8.87996 68.9798 9.82646 68.9798H40.4242L40.4241 68.9941ZM28.6014 62.2417C28.6014 61.8788 28.8991 61.5828 29.264 61.5828H37.4474C37.8123 61.5828 38.11 61.8788 38.11 62.2417V64.8779C38.11 65.2408 37.8123 65.5368 37.4474 65.5368H29.264C28.8991 65.5368 28.6014 65.2408 28.6014 64.8779V62.2417Z" fill="#FF7F00"/>
<path d="M77.1212 71.6844V83.8707H86.1168V71.6844H77.1212Z" fill="#FF7F00"/>
<path d="M9.82639 71.6844H0.898804V83.8707H9.89431V71.6844H9.82639Z" fill="#FF7F00"/>
</svg>
