<svg width="97" height="85" viewBox="0 0 97 85" fill="none" xmlns="http://www.w3.org/2000/svg">
<g id="Group 582">
<path id="Vector" d="M72.4864 56.4738C72.2157 56.1683 71.8692 56 71.5107 56H25.4893C25.1308 56 24.7843 56.1683 24.5136 56.4738L12.5132 70.0072C12.0437 70.5362 11.8767 71.3873 12.0942 72.1425C12.3117 72.8986 12.8677 73.3991 13.489 73.4H17.9584V83.0667C17.9584 84.1343 18.6256 85 19.4483 85C20.271 85 20.9381 84.1343 20.9381 83.0667V73.4H26.1525V77.2667C26.1525 78.3343 26.8196 79.2 27.6424 79.2C28.4651 79.2 29.1322 78.3343 29.1322 77.2667V73.4H67.8678V77.2667C67.8678 78.3343 68.5349 79.2 69.3577 79.2C70.1804 79.2 70.8475 78.3343 70.8475 77.2667V73.4H76.0619V83.0667C76.0619 84.1343 76.729 85 77.5517 85C78.3745 85 79.0416 84.1343 79.0416 83.0667V73.4H83.5111C84.1323 73.3991 84.6883 72.8986 84.9058 72.1425C85.1233 71.3873 84.9563 70.5363 84.4868 70.0072L72.4864 56.4738Z" fill="#3965D6"/>
<path id="Vector_2" d="M38.0547 18.7742H58.9453V34.1356H38.0547V18.7742Z" fill="#3965D6"/>
<path id="Vector_3" d="M94.7578 0H2.24219C1.41816 0 0.75 0.764268 0.75 1.70683V68.273C0.75 68.7257 0.907213 69.16 1.187 69.48C1.46678 69.8 1.84649 69.9799 2.24219 69.9799H11.7622L15.1942 66.5662H3.73437V52.9116H93.2656V66.5662H81.8058L85.2378 69.9799H94.7578C95.1535 69.9799 95.5332 69.8 95.813 69.48C96.0928 69.16 96.25 68.7257 96.25 68.273V1.70683C96.25 1.25421 96.0928 0.819881 95.813 0.499856C95.5332 0.179831 95.1535 0 94.7578 0ZM17.911 49.498H14.9266V3.41365H17.911V49.498ZM23.1337 29.016H21.6415C20.8174 29.016 20.1493 28.2518 20.1493 27.3092C20.1493 26.3667 20.8174 25.6024 21.6415 25.6024H23.1337C23.9577 25.6024 24.6259 26.3667 24.6259 27.3092C24.6259 28.2518 23.9577 29.016 23.1337 29.016ZM32.0868 49.498H29.1024V3.41365H32.0868V49.498ZM60.4384 44.3775H36.5634C35.7393 44.3775 35.0712 43.6132 35.0712 42.6707C35.0712 41.7281 35.7393 40.9638 36.5634 40.9638H60.4384C61.2624 40.9638 61.9305 41.7281 61.9305 42.6707C61.9305 43.6132 61.2624 44.3775 60.4384 44.3775ZM61.9305 35.8434C61.9305 36.296 61.7733 36.7303 61.4935 37.0503C61.2138 37.3703 60.834 37.5502 60.4384 37.5502H36.5634C35.7393 37.5502 35.0712 36.7859 35.0712 35.8434V17.0683C35.0712 16.1257 35.7393 15.3614 36.5634 15.3614H60.4384C60.834 15.3614 61.2138 15.5413 61.4935 15.8613C61.7733 16.1813 61.9305 16.6157 61.9305 17.0683V35.8434ZM60.4384 11.9478H36.5634C35.7393 11.9478 35.0712 11.1835 35.0712 10.241C35.0712 9.2984 35.7393 8.53413 36.5634 8.53413H60.4384C61.2624 8.53413 61.9305 9.2984 61.9305 10.241C61.9305 11.1835 61.2624 11.9478 60.4384 11.9478ZM67.8993 49.498H64.9149V3.41365H67.8993V49.498ZM82.0751 49.498H79.0907V3.41365H82.0751V49.498ZM88.0438 29.016H86.5516C85.7276 29.016 85.0594 28.2518 85.0594 27.3092C85.0594 26.3667 85.7276 25.6024 86.5516 25.6024H88.0438C88.8679 25.6024 89.536 26.3667 89.536 27.3092C89.536 28.2518 88.8679 29.016 88.0438 29.016Z" fill="#3965D6"/>
</g>
</svg>
