<svg xmlns="http://www.w3.org/2000/svg" width="133" height="85" viewBox="0 0 133 85" fill="none">
<g id="Group 583">
<path id="Vector" d="M120.725 60.3801L121.044 60.0606L121.274 60.4498C122.843 63.1119 123.045 66.3661 121.815 69.2022C120.585 72.0384 118.071 74.115 115.055 74.7869C112.037 75.4599 108.88 74.6485 106.562 72.6033L105.867 71.9908H106.793H108.293C108.818 71.9908 109.323 71.7819 109.695 71.4103L120.725 60.3801Z" fill="#ff7f00" stroke="#ff7f00" stroke-width="0.7"/>
<path id="Vector_2" d="M96.4229 57.1451L95.7328 57.2598L96.0548 56.6387C98.7161 51.5061 103.558 47.8539 109.224 46.7042L110.363 46.4732L109.541 47.2947L100.422 56.4142L100.343 56.4936L100.232 56.512L96.4229 57.1451Z" fill="#ff7f00" stroke="#ff7f00" stroke-width="0.7"/>
<path id="Vector_3" d="M101.644 42.0187V42.3687H101.294H96.17H95.0144L95.9758 41.7275L101.1 38.3101L101.644 37.9472V38.6013V42.0187Z" fill="#ff7f00" stroke="#ff7f00" stroke-width="0.7"/>
<path id="Vector_4" d="M119.706 42.7363L119.954 42.4888L120.201 42.7363L126.233 48.7684L126.481 49.0159L126.233 49.2634L109.003 66.4933L108.686 66.8102L108.456 66.426L103.93 58.8873L103.79 58.6529L103.983 58.4596L119.706 42.7363Z" fill="#ff7f00" stroke="#ff7f00" stroke-width="0.7"/>
<path id="Vector_5" d="M42.2656 4.45217L42.513 4.69966L42.2656 4.94714L24.5712 22.6415L23.9737 23.239V22.394V14.9947V14.8497L24.0763 14.7472L38.0709 0.752513L38.3184 0.505025L38.5659 0.752513L42.2656 4.45217Z" fill="#ff7f00" stroke="#ff7f00" stroke-width="0.7"/>
<path id="Vector_6" d="M11.0463 37.6014L10.7988 37.354L11.0463 37.1065L14.7459 33.4068L14.9934 33.1593L15.2409 33.4068L18.3011 36.467L18.6445 36.8104L18.2101 37.0275L13.2765 39.4933L13.0509 39.606L12.8725 39.4277L11.0463 37.6014Z" fill="#ff7f00" stroke="#ff7f00" stroke-width="0.7"/>
<path id="Vector_7" d="M41.5991 45.7377L41.5992 45.7377L41.6031 45.7418C41.9666 46.1168 42.4649 46.3303 42.986 46.3351H61.6441H61.9929L61.9941 46.6839C62.0011 48.6691 62.6666 50.5953 63.8853 52.1628C65.1041 53.7293 66.8069 54.8488 68.7289 55.3447L68.9915 55.4124V55.6836V63.012V63.362H68.6415H50.9472H50.8022L50.6997 63.2595L18.0454 30.6052L17.7979 30.3577L18.0454 30.1103L21.7451 26.4106L21.9924 26.1633L22.2399 26.4104L41.5991 45.7377Z" fill="#ff7f00" stroke="#ff7f00" stroke-width="0.7"/>
<path id="Vector_8" d="M40.2789 37.9604L40.389 38.9519L39.6836 38.2465L29.0242 27.5882L28.5291 27.0932L29.2222 26.9942L38.5498 25.6624L38.9073 25.6114L38.9471 25.9703L40.2789 37.9604Z" fill="#ff7f00" stroke="#ff7f00" stroke-width="0.7"/>
<path id="Vector_9" d="M91.2581 57.8184L91.19 58.0143L90.9855 58.0486L86.9694 58.7223L86.9598 58.7239L86.9502 58.725C85.665 58.868 84.4425 59.3527 83.4098 60.1301C82.377 60.9077 81.5726 61.9484 81.0801 63.1433L80.9908 63.3599H80.7565H73.3041H72.9541V63.0099V57.26V57.0698L73.1138 56.9663L89.4409 46.389L89.5278 46.3327H89.6312H98.9965H100.05L99.2059 46.9632C95.5321 49.7067 92.7639 53.4872 91.2581 57.8184Z" fill="#ff7f00" stroke="#ff7f00" stroke-width="0.7"/>
<path id="Vector_10" d="M19.2817 55.7012L19.4869 55.695L19.5925 55.8711L27.9893 69.8793L28.0959 70.0572L27.9911 70.2362C26.2582 73.1952 23.0884 75.0155 19.6596 75.0233L19.4273 75.0238L19.4267 75.0222C16.0884 74.9708 13.0062 73.1989 11.2855 70.3255C9.52337 67.3856 9.45216 63.7317 11.0965 60.724C12.7408 57.7161 15.8556 55.8049 19.2817 55.7012Z" fill="#ff7f00" stroke="#ff7f00" stroke-width="0.7"/>
<path id="Vector_11" d="M48.5779 66.7457L48.578 66.7458C48.9496 67.1174 49.4541 67.3263 49.9798 67.3263H80.7015H80.955L81.034 67.5673C81.6616 69.4805 83.1614 70.9803 85.0745 71.6077L85.3155 71.6868V71.9403V77.0061V77.3561H84.9655H37.3036H37.1056L37.0036 77.1863L37.3036 77.0061C37.0036 77.1863 37.0035 77.1862 37.0033 77.186L37.0026 77.1848L36.9998 77.1801L36.9887 77.1616L36.9447 77.0883L36.773 76.8026L36.1214 75.7179C35.5599 74.7834 34.7576 73.4482 33.7944 71.8455C31.868 68.6401 29.298 64.3649 26.7237 60.0854C24.1495 55.8059 21.571 51.5222 19.6275 48.3C18.6557 46.6889 17.8428 45.3433 17.2686 44.3964C16.9815 43.9228 16.7543 43.5494 16.5968 43.2923C16.518 43.1637 16.4571 43.0649 16.4151 42.9976C16.3954 42.9661 16.3804 42.9425 16.37 42.9263L16.3483 42.9046L16.005 42.5613L16.4392 42.3441L21.3653 39.8794L21.5909 39.7665L21.7693 39.9449L48.5779 66.7457ZM16.3945 42.9508L16.3931 42.9493C16.3935 42.9498 16.394 42.9503 16.3945 42.9508Z" fill="#ff7f00" stroke="#ff7f00" stroke-width="0.7"/>
<path id="Vector_12" d="M104.172 68.0258H87.3129C86.5827 68.0804 85.8643 67.8145 85.3463 67.2964C84.828 66.7782 84.5623 66.0594 84.6171 65.3291C84.622 64.568 85.0232 63.9345 85.5695 63.4819C86.1159 63.0292 86.8306 62.7351 87.5331 62.6457L100.052 60.5611L100.287 60.522L100.409 60.7263L104.472 67.4957L104.79 68.0258H104.172Z" fill="#ff7f00" stroke="#ff7f00" stroke-width="0.7"/>
<path id="Vector_13" d="M70.9723 51.6986C68.2029 51.6986 65.9574 49.4531 65.9574 46.6837C65.9574 43.9143 68.2029 41.6688 70.9723 41.6688C73.7417 41.6688 75.9872 43.9143 75.9872 46.6837C75.9872 49.4531 73.7417 51.6986 70.9723 51.6986Z" fill="#ff7f00" stroke="#ff7f00" stroke-width="0.7"/>
<path id="Vector_14" d="M14.0673 47.1781L14.3292 47.0977L14.4701 47.3326L16.9702 51.4988L16.7065 51.657L16.7458 52.0208C12.4514 52.9579 8.87162 55.905 7.1285 59.9407L7.12848 59.9407C5.38534 63.9751 5.69194 68.6015 7.95386 72.3711L7.95387 72.3711C10.2148 76.1397 14.152 78.5894 18.5324 78.9496L18.5325 78.9496C22.9123 79.3111 27.1986 77.5405 30.0463 74.1933L30.3621 73.822L30.6129 74.2399L33.0922 78.3706L33.2332 78.6056L33.039 78.7988C28.8997 82.918 23.0938 84.9037 17.2985 84.1825C11.5032 83.4612 6.36161 80.1144 3.35616 75.1061L3.35613 75.106C0.352032 70.098 -0.181583 63.9866 1.90919 58.533L1.90922 58.533C4.00112 53.0804 8.48405 48.8923 14.0673 47.1781Z" fill="#ff7f00" stroke="#ff7f00" stroke-width="0.7"/>
<path id="Vector_15" d="M112.955 84.3528L112.957 84.3528C117.997 84.3476 122.829 82.3425 126.392 78.7783C126.392 78.7783 126.392 78.7783 126.392 78.7783M112.955 84.3528L131.616 65.343C131.611 70.2902 129.643 75.0332 126.144 78.5308L126.392 78.7783M112.955 84.3528C109.172 84.3326 105.48 83.1935 102.344 81.0796C99.2066 78.9657 96.7651 75.9717 95.3258 72.4738L95.127 71.9906H95.6494H100.858H101.063L101.163 72.1699C103 75.4571 106.113 77.8388 109.765 78.7526C113.417 79.6663 117.285 79.0298 120.453 76.9953C123.619 74.9598 125.805 71.7058 126.491 68.0033L126.491 68.0032C127.179 64.3018 126.305 60.4805 124.077 57.4449L123.899 57.2023L124.112 56.9899L127.449 53.6661L127.728 53.3877L127.971 53.6984C130.572 57.0213 131.98 61.1231 131.966 65.3438M112.955 84.3528L131.966 65.3438M126.392 78.7783C129.956 75.2152 131.961 70.3835 131.966 65.3438M126.392 78.7783L131.966 65.3438" fill="#ff7f00" stroke="#ff7f00" stroke-width="0.7"/>
<path id="Vector_16" d="M63.2409 42.1945L63.1398 42.3689H62.9382H45.0815H44.7682L44.7336 42.0575L43.0239 26.6634L42.965 26.1332L43.4748 26.2903L68.7422 34.0758L68.9892 34.1519V34.4103V37.6757V37.9457L68.7281 38.0143C66.416 38.6216 64.4406 40.1259 63.2409 42.1945Z" fill="#ff7f00" stroke="#ff7f00" stroke-width="0.7"/>
<path id="Vector_17" d="M126.253 16.012L127.409 16.012L126.447 16.6532L80.4644 47.3029L79.9203 47.6655V47.0116C79.9203 46.929 79.9317 46.8527 79.9393 46.8022L79.9403 46.7955C79.9489 46.7377 79.9526 46.7088 79.9526 46.6827C79.9454 44.6978 79.2799 42.7721 78.0614 41.2049C76.8427 39.6384 75.1398 38.5189 73.2178 38.023L72.9552 37.9553V37.6841V32.6882C72.9552 31.8171 72.3879 31.0491 71.5561 30.7933L71.5561 30.7933L45.9293 22.9099L45.2261 22.6936L45.8376 22.2845L48.1534 20.7351L48.2417 20.676H48.348H67.8219H67.9447L68.0406 20.7527L79.0636 29.5712L79.0637 29.5713C79.4148 29.8526 79.852 30.0058 80.3027 30.0058L94.2974 30.0058L94.2979 30.0058C94.8861 30.0067 95.4446 29.7458 95.8228 29.2943C95.8229 29.2942 95.823 29.2941 95.8231 29.2939L106.785 16.1372L106.89 16.0112L107.054 16.0112L126.253 16.012Z" fill="#ff7f00" stroke="#ff7f00" stroke-width="0.7"/>
<path id="Vector_18" d="M122.377 39.302L122.224 39.1491L122.293 38.944L123.636 34.9111L123.716 34.6717H123.968H131.616H131.966V35.0217V43.3863V43.5313L131.864 43.6338L129.531 45.9662L129.284 46.2138L129.036 45.9661L122.377 39.302Z" fill="#ff7f00" stroke="#ff7f00" stroke-width="0.7"/>
</g>
</svg>