<svg width="96" height="82" viewBox="0 0 96 82" fill="none" xmlns="http://www.w3.org/2000/svg">
<g id="Group 585">
<path id="Vector" d="M68.5652 25.8986V26.0926L69.1003 26.2264C71.383 26.7971 73.1392 28.5748 73.71 30.8362C73.71 30.8362 73.71 30.8362 73.71 30.8363L73.8438 31.3712H74.0378L74.1716 30.836C74.7423 28.5533 76.5201 26.7972 78.7814 26.2263L79.3164 26.0926V25.8986L78.7812 25.7648C76.4986 25.1941 74.7425 23.4164 74.1716 21.1552C74.1716 21.1551 74.1715 21.155 74.1715 21.1549L74.0378 20.62H73.8438L73.71 21.1552C73.1393 23.4379 71.3615 25.194 69.1001 25.7649L68.5652 25.8986Z" fill="#FF7F00" stroke="#FF7F00" stroke-width="0.2"/>
<path id="Vector_2" d="M16.8364 41.9522V42.1462L17.3715 42.28C19.6542 42.8507 21.4104 44.6284 21.9812 46.8897C21.9812 46.8898 21.9812 46.8898 21.9812 46.8898L22.115 47.4248H22.309L22.4428 46.8896C23.0135 44.6069 24.7913 42.8507 27.0526 42.2799L27.5875 42.1462V41.9522L27.0524 41.8184C24.7698 41.2477 23.0136 39.47 22.4428 37.2087C22.4427 37.2087 22.4427 37.2086 22.4427 37.2085L22.309 36.6736H22.115L21.9812 37.2087C21.4104 39.4915 19.6327 41.2476 17.3713 41.8184L16.8364 41.9522Z" fill="#FF7F00" stroke="#FF7F00" stroke-width="0.2"/>
<path id="Vector_3" d="M79.6928 0.926017L79.6947 0.922949H79.5142H72.067H72.0121L71.9826 0.969318C70.6168 3.1189 69.6092 5.4698 68.9824 7.93271L68.9822 7.93337L68.5888 9.52507L68.1953 7.93337L68.1952 7.9327C67.5683 5.47001 66.5608 3.11891 65.1949 0.96932L65.1655 0.922949H65.1105H59.67H59.57V1.02295V49.1843V49.2843H59.67C63.5612 49.2843 66.705 52.4281 66.705 56.3193C66.705 57.5505 66.3751 58.7817 65.7599 59.8364L65.6721 59.9868H65.8462H86.4257H86.5257V59.8868V7.93576C86.5257 4.12768 83.4783 1.02131 79.6928 0.926017ZM82.7587 27.6793H82.6357C78.7677 27.6793 75.6237 30.8233 75.6237 34.6912V34.8142H72.2562V34.6912C72.2562 30.8233 69.1122 27.6793 65.2442 27.6793H65.1212V24.3117H65.2442C69.1122 24.3117 72.2562 21.1677 72.2562 17.2998V17.1768H75.6237V17.2998C75.6237 21.1677 78.7677 24.3117 82.6357 24.3117H82.7587V27.6793Z" fill="#FF7F00" stroke="#FF7F00" stroke-width="0.2"/>
<path id="Vector_4" d="M41.9332 14.2454L41.9332 14.0039L41.7625 14.1747L38.7079 17.2293C38.3537 17.5835 38.1657 18.0553 38.1657 18.5709V34.9146C38.1657 35.9509 39.0132 36.7983 40.0495 36.7983H47.1845C48.2208 36.7983 49.0683 35.9509 49.0683 34.9146V18.5487C49.0683 18.056 48.8808 17.5617 48.5262 17.207L48.5259 17.2068L45.4713 14.1744L45.3008 14.0052V14.2454V18.7609H41.9333L41.9332 14.2454Z" fill="#FF7F00" stroke="#FF7F00" stroke-width="0.2"/>
<path id="Vector_5" d="M31.0313 22.305H13.3938V1.1794V1.05308L13.2708 1.08206C10.1047 1.8284 7.8425 4.65539 7.8425 7.91302V58.0803V58.1803H7.9425H22.8137C24.2677 58.2029 25.6536 57.6347 26.6758 56.6125L26.7051 56.5833V56.583L31.425 51.8631C33.0784 50.2096 35.3272 49.2836 37.6643 49.2836H56.1039H56.2039V49.1836V1.02222V0.922222H56.1039H45.4013H45.3013V1.02222V9.94099V10.0117L45.368 10.0353C46.1118 10.2978 46.768 10.7132 47.3374 11.2826L50.9049 14.8501C51.8892 15.8345 52.4363 17.1691 52.4363 18.57V34.9136C52.4363 37.8017 50.0732 40.1649 47.1851 40.1649H40.0501C37.162 40.1649 34.7988 37.8017 34.7988 34.9136V18.5477C34.7988 17.1469 35.346 15.8123 36.3303 14.8279L39.8978 11.2604C40.4451 10.7131 41.1236 10.2755 41.8671 10.0131L41.9338 9.98952V9.91877V1V0.9H41.8338H31.1313H31.0313V1V22.305ZM13.5168 43.7323H13.3938V40.3648H13.5168C17.3848 40.3648 20.5288 37.2208 20.5288 33.3528V33.2298H23.8963V33.3528C23.8963 37.2208 27.0403 40.3648 30.9083 40.3648H31.0313V43.7323H30.9083C27.0403 43.7323 23.8963 46.8763 23.8963 50.7443V50.8673H20.5288V50.7443C20.5288 46.8763 17.3848 43.7323 13.5168 43.7323Z" fill="#FF7F00" stroke="#FF7F00" stroke-width="0.2"/>
<path id="Vector_6" d="M91.7688 63.2873C93.2006 63.2926 94.4531 64.2923 94.8204 65.7599C95.2743 67.524 94.2804 69.361 92.5849 69.861L92.5843 69.8612L58.3174 79.7355L91.7688 63.2873ZM91.7688 63.2873L91.7679 63.2871H91.7566H37.7313V59.9683H59.5087C61.4193 59.9683 62.9745 58.3359 62.9745 56.3496C62.9745 54.3633 61.4193 52.7308 59.5087 52.7308H38.7468C37.3729 52.7308 36.0636 53.292 35.0984 54.3011L30.6177 58.9855C29.0585 60.6156 26.9388 61.5278 24.7368 61.5278H0.60907H0.50907V61.6278V75.7028V75.8028H0.60907H26.4408C27.3342 75.8028 28.227 75.9548 29.0569 76.2586L29.0583 76.259L37.3675 79.1621L37.3676 79.1621C44.1393 81.522 51.439 81.7427 58.317 79.7356L91.7688 63.2873Z" fill="#FF7F00" stroke="#FF7F00" stroke-width="0.2"/>
<path id="Vector_7" d="M16.8607 0.922949H16.7607V1.02295V18.8605V18.9605H16.8607H27.5632H27.6632V18.8605V1.02295V0.922949H27.5632H16.8607Z" fill="#FF7F00" stroke="#FF7F00" stroke-width="0.2"/>
</g>
</svg>
