<svg width="79" height="84" viewBox="0 0 79 84" fill="none" xmlns="http://www.w3.org/2000/svg">
<g id="Group 577">
<path id="Vector" d="M49.964 46.0382C49.964 46.857 50.6863 47.5233 51.5739 47.5233H66.0629V44.5531H51.5739C50.6863 44.5531 49.964 45.2194 49.964 46.0382Z" fill="#3965D6"/>
<path id="Vector_2" d="M70.8926 44.5531H69.2827V47.5233H70.8926C71.7802 47.5233 72.5025 46.857 72.5025 46.0382C72.5025 45.2194 71.7802 44.5531 70.8926 44.5531Z" fill="#3965D6"/>
<path id="Vector_3" d="M11.3267 68.3149C11.3267 69.1848 12.064 69.8968 13.0063 69.9366L78.9418 72.7013V69.8H29.0352C28.1462 69.8 27.4253 69.135 27.4253 68.3149C27.4253 67.4948 28.1462 66.8298 29.0352 66.8298H78.9418V63.9285L13.0063 66.6931C12.064 66.7329 11.3267 67.4451 11.3267 68.3149Z" fill="#3965D6"/>
<path id="Vector_4" d="M27.4255 35.6426V21.4805L9.28198 35.6426H27.4255Z" fill="#3965D6"/>
<path id="Vector_5" d="M30.6454 18.9669V35.6425H72.5025V5.94043H47.3349L30.6454 18.9669Z" fill="#3965D6"/>
<path id="Vector_6" d="M42.848 2.17445L42.8481 2.17441C44.4558 0.934316 46.4982 0.25 48.5988 0.25H78.4806L78.4818 0.250594H78.5403C78.6437 0.250594 78.6927 0.323688 78.6927 0.371871V60.7159L12.8514 63.4772C10.0701 63.5941 7.85835 65.7023 7.85835 68.3155C7.85835 70.9287 10.0701 73.0369 12.8513 73.1545L12.8514 73.1545L78.6927 75.9151V82.7952C78.6927 82.8434 78.6437 82.9165 78.5403 82.9165H0.459723C0.356345 82.9165 0.307251 82.8434 0.307251 82.7952V38.8225C0.307251 36.3816 1.47083 34.0776 3.51154 32.5046L3.51156 32.5045L42.848 2.17445ZM45.55 3.12362L45.5498 3.12378L5.79016 34.1599C5.79014 34.1599 5.79012 34.1599 5.7901 34.1599C4.85919 34.8862 4.51984 36.0512 4.9447 37.1217C5.36779 38.1878 6.43067 38.8627 7.63367 38.8627H74.112C75.1197 38.8627 75.9719 38.1044 75.9719 37.1276L75.9715 4.45457C75.9715 3.47777 75.1194 2.71946 74.1117 2.71946H46.7435C46.3087 2.71946 45.8863 2.86164 45.55 3.12362ZM51.5735 50.7436H70.8922C73.6745 50.7436 75.9719 48.6514 75.9719 46.0383C75.9719 43.4252 73.6745 41.3329 70.8922 41.3329H51.5735C48.7912 41.3329 46.4939 43.4252 46.4939 46.0383C46.4939 48.6514 48.7912 50.7436 51.5735 50.7436Z" fill="#3965D6" stroke="white" stroke-width="0.5"/>
</g>
</svg>
