<svg width="83" height="85" viewBox="0 0 83 85" fill="none" xmlns="http://www.w3.org/2000/svg">
<g id="Group 581">
<path id="Vector" d="M49.0017 73.2916L52.2514 76.5413H28.7428V79.3761H52.2514L49.0017 82.6264L51.0059 84.6306L57.6776 77.9589L51.0059 71.2871L49.0017 73.2916Z" fill="#FF7F00"/>
<path id="Vector_2" d="M51.4213 56.6968V68.0357H59.9272L59.926 56.6968H51.4213ZM57.0914 65.2015H54.2566V59.532H57.0914V65.2015Z" fill="#FF7F00"/>
<path id="Vector_3" d="M80.0438 55.131C79.9677 54.4085 79.362 53.8624 78.6335 53.8624H66.7302C66.0018 53.8624 65.3978 54.4079 65.3199 55.1322L62.7744 79.3133C62.7644 79.4066 62.7603 79.4975 62.7603 79.5884C62.7603 81.0347 63.9368 82.2107 65.3836 82.2107H79.9817C81.4274 82.2107 82.604 81.0348 82.604 79.5874C82.604 79.4982 82.5999 79.4073 82.5899 79.3182L80.0438 55.131ZM68.4269 79.4648L65.5974 79.2877L67.0148 56.6087L69.8442 56.7858L68.4269 79.4648ZM74.0992 79.3751H71.2645V56.6961H74.0992V79.3751ZM76.9369 79.4648L75.5195 56.7858L78.349 56.6087L79.7663 79.2877L76.9369 79.4648Z" fill="#FF7F00"/>
<path id="Vector_4" d="M46.7727 22.6804L45.9463 19.3752C45.8176 18.8605 45.7521 18.3333 45.7521 17.8073C45.7521 17.5352 45.8005 17.276 45.8329 17.011H41.504C40.7643 18.7784 40.308 20.6863 40.1545 22.6805L46.7727 22.6804Z" fill="#FF7F00"/>
<path id="Vector_5" d="M8.89978 62.3667V76.5409H17.4057L17.4039 62.3667H8.89978ZM14.5693 73.7056H11.7345V65.2015H14.5693V73.7056Z" fill="#FF7F00"/>
<path id="Vector_6" d="M58.5089 48.193C71.7959 48.193 82.6054 37.3843 82.6054 24.0965C82.6054 10.8095 71.796 0 58.5089 0C45.2219 0 34.4124 10.8087 34.4124 24.0965C34.4124 37.3835 45.2211 48.193 58.5089 48.193ZM58.5089 2.83657C70.232 2.83657 79.7703 12.3744 79.7703 24.098C79.7703 35.8212 70.2325 45.3595 58.5089 45.3595C46.7852 45.3595 37.2474 35.8217 37.2474 24.098C37.2474 12.3748 46.7852 2.83657 58.5089 2.83657Z" fill="#FF7F00"/>
<path id="Vector_7" d="M36.5915 8.50562H0.394653V14.1751H33.495C34.3002 12.1527 35.3433 10.2549 36.5906 8.50562H36.5915Z" fill="#FF7F00"/>
<path id="Vector_8" d="M7.92355 50.2211L11.3096 59.5316H14.995L18.3811 50.2205C16.8787 50.7329 15.1013 51.0274 13.1525 51.0274C11.2034 51.0274 9.42586 50.7329 7.9234 50.221L7.92355 50.2211Z" fill="#FF7F00"/>
<path id="Vector_9" d="M0.395325 22.6805H6.06484V31.1847H0.395325V22.6805Z" fill="#FF7F00"/>
<path id="Vector_10" d="M50.8424 27.2746C51.0012 27.9069 51.5668 28.349 52.2191 28.349H64.8012C65.4529 28.349 66.0173 27.9069 66.1773 27.2746L68.3249 18.6854C68.3957 18.3974 68.4311 18.1016 68.4311 17.8064C68.4311 15.8035 66.8025 14.1754 64.8001 14.1754H52.2179C50.2162 14.1754 48.5875 15.8035 48.5875 17.8064C48.5875 18.101 48.6229 18.3974 48.6967 18.6878L50.8424 27.2746ZM54.2575 17.0101H62.7616V19.8448H54.2575V17.0101ZM51.4221 22.6796H65.5964V25.5144H51.4221V22.6796Z" fill="#FF7F00"/>
<path id="Vector_11" d="M64.8001 31.1841H52.2179C52.1724 31.1841 52.1288 31.1741 52.0833 31.1729L46.3289 37.8854C49.5798 40.7615 53.8378 42.5236 58.5096 42.5236C63.1815 42.5236 67.4395 40.7615 70.6909 37.8871L64.9364 31.1727C64.8892 31.1739 64.8467 31.1841 64.8001 31.1841ZM54.2575 36.8542H51.4227V34.0195H54.2575V36.8542ZM59.927 36.8542H57.0922V34.0195H59.927V36.8542ZM65.5965 36.8542H62.7617V34.0195H65.5965V36.8542Z" fill="#FF7F00"/>
<path id="Vector_12" d="M38.9233 42.5244C34.3832 37.7021 31.5785 31.2274 31.5785 24.098C31.5785 21.6417 31.9368 19.2733 32.5566 17.0111H0.394714V19.8459H6.06423C7.62744 19.8459 8.89899 21.1174 8.89899 22.6806V31.1847C8.89899 32.748 7.62743 34.0195 6.06423 34.0195H0.394714V82.211H25.9072V48.1933C25.9072 45.0664 28.4497 42.5238 31.5768 42.5238L38.9233 42.5244ZM18.821 21.2629C20.3871 21.2629 21.6558 22.5315 21.6558 24.0977C21.6558 25.6638 20.3872 26.9325 18.821 26.9325C17.2549 26.9325 15.9862 25.6639 15.9862 24.0977C15.9862 22.5316 17.2548 21.2629 18.821 21.2629ZM20.2384 62.3683H23.0731V65.2031H20.2384V68.0378H23.0731V70.8726H20.2384V73.7073H23.0731V76.5421H20.2384C20.2384 78.1053 18.9668 79.3768 17.4036 79.3768H8.89947C7.33626 79.3768 6.06471 78.1053 6.06471 76.5421V62.3685C6.06471 61.0048 7.03284 59.8656 8.31569 59.5963L3.91726 47.4993C3.47629 46.8447 3.22953 46.1263 3.22953 45.3595C3.22953 42.128 7.49573 39.6899 13.151 39.6899C18.8064 39.6899 23.0725 42.128 23.0725 45.3595C23.0725 46.1263 22.8258 46.8465 22.3836 47.5024L17.9869 59.594C19.2702 59.865 20.2383 61.0049 20.2383 62.3685L20.2384 62.3683ZM25.9079 38.2718C23.559 38.2718 21.6557 36.368 21.6557 34.0197C21.6557 31.6708 23.5596 29.7675 25.9079 29.7675C28.2568 29.7675 30.16 31.6714 30.16 34.0197C30.1606 36.368 28.2568 38.2718 25.9079 38.2718Z" fill="#FF7F00"/>
<path id="Vector_13" d="M75.5133 17.0103H71.1843C71.2174 17.2736 71.2652 17.5334 71.2652 17.8067C71.2652 18.3327 71.2003 18.8598 71.0722 19.3728L70.2463 22.6798H76.8644C76.7098 20.6857 76.2535 18.7779 75.5133 17.0103Z" fill="#FF7F00"/>
<path id="Vector_14" d="M20.2386 45.3578C20.2386 46.9233 17.0656 48.1926 13.1517 48.1926C9.23728 48.1926 6.06476 46.9234 6.06476 45.3578C6.06476 43.7923 9.23712 42.5231 13.1517 42.5231C17.0654 42.5231 20.2386 43.7923 20.2386 45.3578Z" fill="#FF7F00"/>
<path id="Vector_15" d="M34.4138 68.037H42.9198L42.918 56.6975H34.4139L34.4138 68.037ZM37.2486 59.5323H40.0833V65.2018H37.2486V59.5323Z" fill="#FF7F00"/>
<path id="Vector_16" d="M57.0914 53.8632V50.9559C56.1315 50.9051 55.1864 50.8071 54.2566 50.6583V53.8632L57.0914 53.8632Z" fill="#FF7F00"/>
<path id="Vector_17" d="M37.2474 45.3579H40.0822V53.862H37.2474V45.3579Z" fill="#FF7F00"/>
</g>
</svg>
