<svg width="85" height="85" viewBox="0 0 85 85" fill="none" xmlns="http://www.w3.org/2000/svg">
<g id="Group 566">
<path id="Vector" d="M72.9533 46.8958H67.0006C65.957 52.7199 62.8989 57.8462 58.5564 61.5168L61.5317 66.6709C67.7536 61.7705 71.8352 54.7043 72.9533 46.895V46.8958Z" fill="#3965D6"/>
<path id="Vector_2" d="M79.137 41.0339H67.3383C67.3679 41.5219 67.413 42.0045 67.413 42.4996C67.413 42.9947 67.3673 43.4773 67.3383 43.9652H79.137V41.0339Z" fill="#3965D6"/>
<path id="Vector_3" d="M61.5317 18.3288L58.5564 23.4829C62.8988 27.1553 65.957 32.2816 67.0006 38.1038H72.9533C71.8357 30.296 67.7542 23.2297 61.5317 18.328V18.3288Z" fill="#3965D6"/>
<path id="Vector_4" d="M43.9658 42.5002C43.9658 43.3095 43.3094 43.9658 42.5001 43.9658C41.6908 43.9658 41.0345 43.3095 41.0345 42.5002C41.0345 41.6909 41.6908 41.0345 42.5001 41.0345C43.3094 41.0345 43.9658 41.6909 43.9658 42.5002Z" fill="#3965D6"/>
<path id="Vector_5" d="M62.0871 73.4959L56.1943 63.2903C55.3808 63.8281 54.5282 64.3059 53.6519 64.7471L59.5507 74.9628L62.0871 73.4959Z" fill="#3965D6"/>
<path id="Vector_6" d="M64.4823 42.5002C64.4823 30.379 54.6211 20.5175 42.4996 20.5175C30.378 20.5175 20.5168 30.3787 20.5168 42.5002C20.5168 54.6218 30.378 64.483 42.4996 64.483C54.6211 64.483 64.4823 54.6218 64.4823 42.5002ZM54.9051 43.9659H51.0993L52.5122 46.0837L50.0736 47.7088L47.5782 43.9659H46.6271C46.1848 45.2074 45.2071 46.1845 43.9656 46.6274V47.5784L47.7098 50.0739L46.0847 52.5124L43.9656 51.0995V54.9053L47.7098 57.4008L46.0847 59.8394L43.9656 58.4271V61.5511H41.0348V58.4265L38.917 59.8393L37.2919 57.4008L41.0342 54.9053V51.0995L38.9164 52.5124L37.2913 50.0739L41.0342 47.5784V46.6274C39.7927 46.1851 38.8156 45.2074 38.3727 43.9659H37.4217L34.9262 47.71L32.4877 46.0849L33.9006 43.9659H30.0948L27.5993 47.71L25.1607 46.0849L26.573 43.9659H23.449V41.0351H26.5737L25.1608 38.9172L27.5993 37.2921L30.0948 41.0345H33.9006L32.4877 38.9166L34.9263 37.2915L37.4217 41.0345H38.3727C38.815 39.7929 39.7927 38.8159 41.0343 38.3729V37.4219L37.2901 34.9265L38.9152 32.4879L41.0343 33.9008V30.095L37.2901 27.5995L38.9152 25.161L41.0343 26.5733V23.4493H43.965V26.5739L46.0829 25.161L47.708 27.5995L43.9656 30.095V33.9008L46.0835 32.4879L47.7086 34.9265L43.9656 37.422V38.373C45.2072 38.8153 46.1843 39.793 46.6272 41.0345H47.5782L50.0736 37.2903L52.5122 38.9154L51.0993 41.0345H54.9051L57.4006 37.2903L59.8391 38.9154L58.4268 41.0345H61.5508V43.9653H58.4262L59.8391 46.0831L57.4006 47.7082L54.9051 43.9659Z" fill="#3965D6"/>
<path id="Vector_7" d="M38.1039 75.9108V80.6036C38.1039 83.0274 40.0765 85 42.5003 85C44.9241 85 46.8967 83.0274 46.8967 80.6036V75.9114C45.4476 76.0999 43.9832 76.2072 42.5003 76.2072C41.0174 76.2072 39.553 76.0999 38.1039 75.9108ZM43.9659 80.6036C43.9659 81.4123 43.3096 82.0693 42.5003 82.0693C41.6915 82.0693 41.0346 81.4129 41.0346 80.6036C41.0346 79.7949 41.6909 79.1379 42.5003 79.1379C43.309 79.1379 43.9659 79.7943 43.9659 80.6036Z" fill="#3965D6"/>
<path id="Vector_8" d="M53.6526 20.2534C54.5289 20.6945 55.3822 21.1724 56.195 21.7102L62.0878 11.5028L59.5495 10.0371L53.6526 20.2534Z" fill="#3965D6"/>
<path id="Vector_9" d="M53.9212 71.078L50.939 65.9121C48.2983 66.8661 45.4654 67.4139 42.4991 67.4139C39.5328 67.4139 36.6999 66.8661 34.0608 65.9115L31.0768 71.078C34.7112 72.536 38.545 73.2759 42.4991 73.2759C46.4532 73.2759 50.2869 72.5359 53.9214 71.078L53.9212 71.078Z" fill="#3965D6"/>
<path id="Vector_10" d="M31.3465 64.7471C30.4702 64.3059 29.6169 63.8281 28.8041 63.2903L22.9113 73.4977L25.4496 74.9634L31.3465 64.7471Z" fill="#3965D6"/>
<path id="Vector_11" d="M23.4675 66.6718L26.4427 61.5177C22.1004 57.8453 19.0421 52.719 17.9986 46.8967L12.0452 46.8961C13.1634 54.7046 17.245 61.7709 23.4675 66.672V66.6718Z" fill="#3965D6"/>
<path id="Vector_12" d="M31.0779 13.9229L34.0602 19.0889C36.7009 18.1349 39.5338 17.5871 42.5001 17.5871C45.4664 17.5871 48.2992 18.1349 50.9383 19.0895L53.9224 13.9229C50.2879 12.465 46.4542 11.7251 42.5001 11.7251C38.5459 11.7251 34.7122 12.465 31.0778 13.9229L31.0779 13.9229Z" fill="#3965D6"/>
<path id="Vector_13" d="M42.4996 0.000924967C19.0657 0.000924967 0.000244141 19.0664 0.000244141 42.5002C0.000244141 63.844 15.8176 81.5571 36.3447 84.5488C35.6101 83.4068 35.172 82.0586 35.172 80.6036V75.4056C33.2741 74.9835 31.4159 74.387 29.6029 73.6322L27.9896 76.4283C27.5983 77.1054 26.9668 77.5904 26.2102 77.7944C25.9582 77.862 25.7015 77.8958 25.4466 77.8958C24.9379 77.8958 24.4369 77.7624 23.9857 77.5015L21.4474 76.0358C20.7703 75.6445 20.2853 75.0131 20.0813 74.2565C19.8792 73.4988 19.9829 72.7091 20.3742 72.032L21.9923 69.2287C14.8792 63.7663 10.2515 55.7532 9.09539 46.8968H5.86225C4.24606 46.8968 2.93147 45.5823 2.93147 43.966V41.0352C2.93147 39.419 4.24594 38.1044 5.86225 38.1044H9.09539C10.2515 29.2482 14.8797 21.2353 21.9916 15.7741L20.3736 12.9708C19.9823 12.2937 19.8786 11.504 20.0807 10.7463C20.2829 9.99032 20.7679 9.3583 21.4468 8.96692L23.9851 7.50127C24.6604 7.10996 25.4537 7.0062 26.2096 7.20838C26.9655 7.41055 27.5976 7.89555 27.989 8.57443L29.6035 11.3694C33.6992 9.66651 38.0287 8.79436 42.4997 8.79436C46.9708 8.79436 51.3001 9.66652 55.396 11.3694L57.0093 8.57321C57.4006 7.89612 58.0321 7.41113 58.7887 7.20716C59.5446 7.0032 60.335 7.10874 61.0132 7.50006L63.5515 8.96571C64.2286 9.35702 64.7135 9.98847 64.9175 10.7451C65.1197 11.5028 65.0159 12.2925 64.6246 12.9696L63.0066 15.7729C70.1184 21.2347 74.7467 29.2484 75.9047 38.1032L79.1372 38.1038C80.7534 38.1038 82.068 39.4183 82.068 41.0346V43.9654C82.068 45.5816 80.7535 46.8962 79.1372 46.8962H75.9041C74.7479 55.7524 70.1198 63.7654 63.0078 69.2265L64.6258 72.0298C65.0171 72.7069 65.1209 73.4967 64.9187 74.2543C64.7166 75.0103 64.2316 75.6423 63.5527 76.0337L61.0144 77.4994C60.5632 77.7602 60.0616 77.8936 59.5535 77.8936C59.2985 77.8936 59.0418 77.8616 58.7898 77.7923C58.0339 77.5901 57.4019 77.1051 57.0105 76.4262L55.396 73.6313C53.5817 74.386 51.7246 74.9825 49.8269 75.4047L49.8275 80.6027C49.8275 82.0577 49.3893 83.406 48.6553 84.5478C69.1825 81.5566 84.9998 63.8431 84.9998 42.4993C84.9998 19.0655 65.9343 0 42.5005 0L42.4996 0.000924967Z" fill="#3965D6"/>
<path id="Vector_14" d="M22.912 11.5051L28.8048 21.7108C29.6183 21.173 30.4709 20.6951 31.3472 20.254L25.4484 10.0382L22.912 11.5051Z" fill="#3965D6"/>
<path id="Vector_15" d="M12.0457 38.1046H17.9985C19.042 32.2805 22.1001 27.1541 26.4427 23.4836L23.4674 18.3295C17.2455 23.2298 13.1639 30.2961 12.0457 38.1053V38.1046Z" fill="#3965D6"/>
<path id="Vector_16" d="M5.86212 43.9665H17.6608C17.6312 43.4785 17.5861 42.9959 17.5861 42.5008C17.5861 42.0057 17.6318 41.5231 17.6608 41.0352H5.86212V43.9665Z" fill="#3965D6"/>
</g>
</svg>
